<?xml version="1.0" standalone="no"?>
<!DOCTYPE svg PUBLIC "-//W3C//DTD SVG 1.1//EN" "http://www.w3.org/Graphics/SVG/1.1/DTD/svg11.dtd" >
<svg xmlns="http://www.w3.org/2000/svg" xmlns:xlink="http://www.w3.org/1999/xlink" version="1.1">
<metadata>
Created by FontForge 20170731 at Wed Jan 25 17:59:15 2017
 By Aleksey,,,
Copyright (c) 2016 by Aaron James Draplin, Draplin Design Company. All rights reserved.
</metadata>
<defs>
<font id="DDCHardware-Condensed" horiz-adv-x="450" >
  <font-face 
    font-family="DDC Hardware Condensed"
    font-weight="410"
    font-stretch="normal"
    units-per-em="1000"
    panose-1="2 0 0 0 0 0 0 0 0 0"
    ascent="800"
    descent="-200"
    x-height="675"
    cap-height="675"
    bbox="-220 -304 1894 944"
    underline-thickness="0"
    underline-position="0"
    unicode-range="U+000D-FB02"
  />
<missing-glyph horiz-adv-x="1036" 
d="M556 585l343 -111q16 -5 26.5 -19.5t10.5 -30.5v-168q0 -16 -10.5 -30.5t-26.5 -19.5l-343 -108q-38 -12 -75 0l-342 108q-16 5 -27.5 19.5t-11.5 30.5v168q0 16 11.5 30.5t27.5 19.5l342 111q37 13 75 0zM390 283v121q0 15 -11.5 26t-26.5 11h-146v-195h146
q15 0 26.5 11.5t11.5 25.5zM617 283v121q0 15 -10.5 26t-26.5 11h-146v-195h146q15 0 26 11t11 26zM845 374v30q0 15 -11 26t-26 11h-109q-17 0 -28 -11t-11 -26v-121q0 -15 11 -26t28 -11h109q15 0 26 11.5t11 25.5v27h-57v-12l-6 -9h-58q-6 0 -6 9v92q0 6 6 6h58
q6 -2 6 -6v-16h57zM555 396q5 0 5 -6v-92q0 -9 -5 -9h-64v107h64zM324 396q9 0 9 -6v-92q0 -9 -9 -9h-60v107h60z" />
    <glyph glyph-name=".notdef" horiz-adv-x="1036" 
d="M556 585l343 -111q16 -5 26.5 -19.5t10.5 -30.5v-168q0 -16 -10.5 -30.5t-26.5 -19.5l-343 -108q-38 -12 -75 0l-342 108q-16 5 -27.5 19.5t-11.5 30.5v168q0 16 11.5 30.5t27.5 19.5l342 111q37 13 75 0zM390 283v121q0 15 -11.5 26t-26.5 11h-146v-195h146
q15 0 26.5 11.5t11.5 25.5zM617 283v121q0 15 -10.5 26t-26.5 11h-146v-195h146q15 0 26 11t11 26zM845 374v30q0 15 -11 26t-26 11h-109q-17 0 -28 -11t-11 -26v-121q0 -15 11 -26t28 -11h109q15 0 26 11.5t11 25.5v27h-57v-12l-6 -9h-58q-6 0 -6 9v92q0 6 6 6h58
q6 -2 6 -6v-16h57zM555 396q5 0 5 -6v-92q0 -9 -5 -9h-64v107h64zM324 396q9 0 9 -6v-92q0 -9 -9 -9h-60v107h60z" />
    <glyph glyph-name=".null" horiz-adv-x="0" 
 />
    <glyph glyph-name="nonmarkingreturn" horiz-adv-x="333" 
 />
    <glyph glyph-name="NULL" horiz-adv-x="0" 
 />
    <glyph glyph-name="NULL" horiz-adv-x="0" 
 />
    <glyph glyph-name="CR" unicode="&#xd;" horiz-adv-x="187" 
 />
    <glyph glyph-name="space" unicode=" " horiz-adv-x="187" 
 />
    <glyph glyph-name="exclam" unicode="!" horiz-adv-x="277" 
d="M219 675l-13 -436h-136l-12 436h161zM212 164v-164h-149v164h149z" />
    <glyph glyph-name="quotedbl" unicode="&#x22;" horiz-adv-x="464" 
d="M388 391h-98l-18 284h134zM174 391h-98l-18 284h134z" />
    <glyph glyph-name="numbersign" unicode="#" horiz-adv-x="757" 
d="M434 267l31 154h-137l-31 -154h137zM377 0l34 166h-134l-34 -166h-132l34 166h-114v102h136l30 152h-93v102h115l31 153h133l-31 -153h133l31 153h132l-31 -153h109v-102h-131l-31 -152h89v-102h-111l-33 -166h-132z" />
    <glyph glyph-name="dollar" unicode="$" horiz-adv-x="433" 
d="M271 733v-112h99v-108h-167q-4 0 -12 -3.5t-8 -7.5v-90q0 -3 8 -6t12 -3h97q30 0 53.5 -19.5t23.5 -47.5v-202q0 -29 -19 -48t-48 -19h-39v-115h-97v115h-117v111h186q8 0 8 9v94q0 8 -8 8h-119q-29 0 -48 18.5t-19 48.5v198q0 29 19 48t48 19h50v112h97z" />
    <glyph glyph-name="percent" unicode="%" horiz-adv-x="863" 
d="M752 403q20 0 33.5 -13t13.5 -32v-312q0 -19 -13.5 -32.5t-33.5 -13.5h-214q-19 0 -33.5 13.5t-14.5 32.5v312q0 18 14.5 31.5t33.5 13.5h214zM694 87v230h-99v-230h99zM328 675q20 0 33.5 -13t13.5 -32v-312q0 -19 -13.5 -32.5t-33.5 -13.5h-214q-19 0 -33.5 13.5
t-14.5 32.5v312q0 18 14.5 31.5t33.5 13.5h214zM270 359v230h-99v-230h99zM260 148h123l-106 -187h-123zM699 704l-107 -188h-124l107 188h124z" />
    <glyph glyph-name="ampersand" unicode="&#x26;" horiz-adv-x="541" 
d="M73 428v168q0 35 22 57t57 22h221q35 0 57 -22t22 -57v-124h-133v76q0 15 -15 15h-84q-15 0 -15 -15v-147q0 -15 15 -15h299v-102h-62v-205q0 -35 -22 -57t-57 -22h-226q-35 0 -57 22t-22 57v154q0 41 24.5 69.5t64.5 29.5q-41 1 -65 28t-24 68zM205 269v-142
q0 -15 15 -15h89q15 0 15 15v157h-104q-15 0 -15 -15z" />
    <glyph glyph-name="quotesingle" unicode="'" horiz-adv-x="250" 
d="M174 391h-98l-18 284h134z" />
    <glyph glyph-name="parenleft" unicode="(" horiz-adv-x="303" 
d="M326 -154l-109 -71q-7 8 -19.5 22.5t-43.5 65.5t-55 107t-43.5 145t-19.5 182t18.5 181.5t45 148t53.5 105.5t45 68l19 21l109 -73q-6 -5 -16.5 -16t-37 -51.5t-47 -88t-37 -127t-16.5 -168.5t16 -168t38.5 -128.5t45 -86.5t38.5 -52z" />
    <glyph glyph-name="parenright" unicode=")" horiz-adv-x="303" 
d="M82 -225l-109 71q6 5 16.5 16t37 51.5t47 88t37 127t16.5 168.5t-16 168t-38.5 128.5t-45 86.5t-38.5 52l-16 16l109 73q7 -8 19.5 -23t43.5 -65.5t55 -107t43.5 -146t19.5 -182.5t-18.5 -181t-45 -147t-53.5 -105t-46 -68z" />
    <glyph glyph-name="asterisk" unicode="*" horiz-adv-x="471" 
d="M413 558l-101 -53l101 -55l-41 -73l-98 61l2 -115h-81l3 115l-98 -61l-42 73l102 55l-102 53l42 73l98 -61l-3 115h81l-2 -115l98 61z" />
    <glyph glyph-name="plus" unicode="+" horiz-adv-x="593" 
d="M514 271h-156v-173h-123v173h-156v112h156v171h123v-171h156v-112z" />
    <glyph glyph-name="comma" unicode="," horiz-adv-x="340" 
d="M59 -129l78 284h145l-103 -284h-120z" />
    <glyph glyph-name="hyphen" unicode="-" horiz-adv-x="551" 
d="M79 393h393v-127h-393v127z" />
    <glyph glyph-name="period" unicode="." horiz-adv-x="265" 
d="M207 166v-166h-149v166h149z" />
    <glyph glyph-name="slash" unicode="/" horiz-adv-x="402" 
d="M394 746l-259 -817h-127l260 817h126z" />
    <glyph glyph-name="zero" unicode="0" horiz-adv-x="504" 
d="M367 679q35 0 56 -21.5t21 -55.5v-528q0 -34 -21 -55.5t-56 -21.5h-230q-34 0 -55.5 21.5t-21.5 55.5v528q0 34 21.5 55.5t55.5 21.5h230zM207 109h90q12 0 12 11v435q0 11 -12 11h-90q-12 0 -12 -11v-435q0 -11 12 -11z" />
    <glyph glyph-name="one" unicode="1" horiz-adv-x="504" 
d="M79 525l-20 98l156 52h113v-559h139v-116h-421v116h148v435z" />
    <glyph glyph-name="two" unicode="2" horiz-adv-x="504" 
d="M348 280h-128q-12 0 -12 -11v-154h215v-115h-350v326q0 32 21.5 51t55.5 19h128q12 0 12 12v143q0 12 -12 12h-193v112h263q33 0 55 -22t22 -56v-240q0 -33 -22 -55t-55 -22z" />
    <glyph glyph-name="three" unicode="3" horiz-adv-x="504" 
d="M416 427q0 -25 -16 -49t-37 -35q53 -18 53 -81v-185q0 -34 -19 -55.5t-51 -21.5h-269v112h192q12 0 12 12v158q0 12 -12 12h-175v110h175q12 0 12 12v135q0 12 -12 12h-192v112h267q33 0 52.5 -20t19.5 -53v-175z" />
    <glyph glyph-name="four" unicode="4" horiz-adv-x="504" 
d="M471 263v-109h-64v-154h-134v154h-213v521h127v-412h89v412h131v-412h64z" />
    <glyph glyph-name="five" unicode="5" horiz-adv-x="504" 
d="M417 563h-210v-160h141q34 0 55.5 -22t21.5 -56v-247q0 -34 -21.5 -56t-55.5 -22h-265v112h195q12 0 12 12v154q0 12 -12 12h-194v385h333v-112z" />
    <glyph glyph-name="six" unicode="6" horiz-adv-x="504" 
d="M423 563h-211q-11 0 -11 -12v-119h159q34 0 56 -22t22 -56v-280q0 -33 -22 -55t-56 -22h-217q-37 0 -57.5 24.5t-20.5 59.5v516q0 35 20 56.5t58 21.5h280v-112zM294 327h-85q-11 0 -11 -11v-195q0 -12 11 -12h85q12 0 12 12v195q0 11 -12 11z" />
    <glyph glyph-name="seven" unicode="7" horiz-adv-x="504" 
d="M58 675h387v-106l-233 -569h-145l239 561h-248v114z" />
    <glyph glyph-name="eight" unicode="8" horiz-adv-x="504" 
d="M438 415q0 -31 -21.5 -47.5t-52.5 -17.5q29 -2 51.5 -25t22.5 -55v-196q0 -33 -21.5 -55t-54.5 -22h-224q-33 0 -54.5 22t-21.5 55v196q0 32 22 55t52 25q-32 1 -53 17.5t-21 47.5v186q0 33 21.5 55t54.5 22h224q33 0 54.5 -22t21.5 -55v-186zM303 121v158q0 12 -12 12
h-82q-12 0 -12 -12v-158q0 -11 12 -11h82q12 0 12 11zM303 404v150q0 12 -12 12h-82q-12 0 -12 -12v-150q0 -12 12 -12h82q12 0 12 12z" />
    <glyph glyph-name="nine" unicode="9" horiz-adv-x="504" 
d="M77 109h210q12 0 12 11v120h-160q-34 0 -55.5 22t-21.5 55v281q0 33 21.5 55t55.5 22h217q37 0 57.5 -24.5t20.5 -59.5v-517q0 -34 -20 -55.5t-58 -21.5h-279v112zM205 344h85q12 0 12 12v195q0 11 -12 11h-85q-11 0 -11 -11v-195q0 -12 11 -12z" />
    <glyph glyph-name="colon" unicode=":" horiz-adv-x="265" 
d="M207 166v-166h-149v166h149zM207 438v-166h-149v166h149z" />
    <glyph glyph-name="semicolon" unicode=";" horiz-adv-x="342" 
d="M284 438v-166h-148v166h148zM59 -129l78 284h145l-103 -284h-120z" />
    <glyph glyph-name="less" unicode="&#x3c;" horiz-adv-x="579" 
d="M500 79l-421 157v149l421 156v-136l-299 -92l299 -89v-145z" />
    <glyph glyph-name="equal" unicode="=" horiz-adv-x="562" 
d="M483 360h-404v119h404v-119zM483 141h-404v119h404v-119z" />
    <glyph glyph-name="greater" unicode="&#x3e;" horiz-adv-x="579" 
d="M500 236l-421 -157v145l299 89l-299 92v136l421 -156v-149z" />
    <glyph glyph-name="question" unicode="?" 
d="M307 676q91 0 91 -77v-169q0 -46 -26 -71.5t-75 -25.5h-53q-4 0 -7.5 -3.5t-3.5 -7.5v-91h-132v131q0 78 83 78h74q10 0 10 10v99q0 10 -10 10h-200v117h249zM242 0v164h-149v-164h149z" />
    <glyph glyph-name="at" unicode="@" horiz-adv-x="820" 
d="M730 0h-561q-35 0 -57 22t-22 57v517q0 35 22 57t57 22h482q35 0 57 -22t22 -57v-338q0 -35 -22 -57t-57 -22h-203v93h-79v-93h-89v292q0 18 11.5 29.5t29.5 11.5h176q18 0 29.5 -11.5t11.5 -29.5v-216h76q5 0 9.5 4.5t4.5 9.5v307q0 5 -4.5 9.5t-9.5 4.5h-410
q-4 0 -8 -4.5t-4 -9.5v-480q0 -11 12 -11h526v-85zM369 348h79v83q0 10 -13 10h-54q-12 0 -12 -10v-83z" />
    <glyph glyph-name="A" unicode="A" horiz-adv-x="521" 
d="M448 602v-602h-134v186h-107v-186h-134v602q0 32 20 52.5t52 20.5h230q32 0 52.5 -20.5t20.5 -52.5zM207 298h107v248q0 16 -18 16h-72q-17 0 -17 -16v-248z" />
    <glyph glyph-name="B" unicode="B" horiz-adv-x="529" 
d="M387 0h-308v675h307q34 0 55 -21t21 -53v-175q0 -74 -77 -89q36 -8 57 -30.5t21 -55.5v-176q0 -34 -21 -54.5t-55 -20.5zM329 123v151q0 14 -14 14h-101v-178h101q14 0 14 13zM329 408v140q0 15 -14 15h-101v-170h101q14 0 14 15z" />
    <glyph glyph-name="C" unicode="C" horiz-adv-x="496" 
d="M310 252h135v-176q0 -35 -22.5 -57.5t-57.5 -22.5h-213q-35 0 -57 22.5t-22 57.5v522q0 36 22 58.5t57 22.5h213q35 0 57.5 -22.5t22.5 -58.5v-173h-135v128q0 11 -7 11h-86q-9 0 -9 -11v-431q0 -10 9 -10h84q9 0 9 10v130z" />
    <glyph glyph-name="D" unicode="D" horiz-adv-x="532" 
d="M79 675h271q47 0 78 -31t31 -78v-456q0 -48 -31 -79t-78 -31h-271v675zM324 143v389q0 28 -28 28h-82v-445h82q13 0 20.5 8t7.5 20z" />
    <glyph glyph-name="E" unicode="E" 
d="M79 0v675h319v-115h-184v-163h155v-113h-155v-169h184v-115h-319z" />
    <glyph glyph-name="F" unicode="F" horiz-adv-x="431" 
d="M79 0v675h316v-115h-182v-193h154v-114h-154v-253h-134z" />
    <glyph glyph-name="G" unicode="G" horiz-adv-x="525" 
d="M261 300v113h221v-113h-41v-223q0 -35 -22.5 -57.5t-58.5 -22.5h-207q-36 0 -58 22.5t-22 57.5v521q0 36 22 58.5t58 22.5h289v-120h-226q-8 0 -8 -11v-421q0 -10 8 -10h93q9 0 9 10v173h-57z" />
    <glyph glyph-name="H" unicode="H" horiz-adv-x="545" 
d="M466 675v-675h-134v279h-119v-279h-134v675h134v-283h119v283h134z" />
    <glyph glyph-name="I" unicode="I" horiz-adv-x="289" 
d="M210 675v-675h-131v675h131z" />
    <glyph glyph-name="J" unicode="J" horiz-adv-x="475" 
d="M52 323h131v-202q0 -9 9 -9h59q11 0 11 9v554h134v-601q0 -33 -22 -55t-54 -22h-191q-31 0 -54 22.5t-23 54.5v249z" />
    <glyph glyph-name="K" unicode="K" horiz-adv-x="518" 
d="M497 0h-143l-111 259l-30 -45v-214h-134v675h134v-282l136 282h142l-157 -310z" />
    <glyph glyph-name="L" unicode="L" horiz-adv-x="406" 
d="M79 0v675h134v-558h161v-117h-295z" />
    <glyph glyph-name="M" unicode="M" horiz-adv-x="631" 
d="M288 160l-86 231v-391h-123v675h127l109 -319l104 319h133v-675h-128v394l-86 -234h-50z" />
    <glyph glyph-name="N" unicode="N" horiz-adv-x="550" 
d="M352 0l-154 374v-374h-119v675h118l155 -390v390h119v-675h-119z" />
    <glyph glyph-name="O" unicode="O" horiz-adv-x="528" 
d="M146 679h236q32 0 52.5 -20.5t20.5 -52.5v-536q0 -32 -20.5 -52.5t-52.5 -20.5h-236q-33 0 -53 20.5t-20 52.5v536q0 32 20 52.5t53 20.5zM320 121v434q0 11 -8 11h-97q-7 0 -7 -11v-434q0 -9 7 -9h97q8 0 8 9z" />
    <glyph glyph-name="P" unicode="P" horiz-adv-x="510" 
d="M79 675h295q35 0 58 -22.5t23 -57.5v-332q0 -35 -23 -57.5t-58 -22.5h-159v-183h-136v675zM215 295h96q8 0 8 9v246q0 10 -8 10h-96v-265z" />
    <glyph glyph-name="Q" unicode="Q" horiz-adv-x="525" 
d="M399 -113h-129l-42 113h-76q-35 0 -57 22.5t-22 57.5v515q0 35 22 57.5t57 22.5h220q35 0 57.5 -22.5t22.5 -57.5v-515q0 -35 -22.5 -57.5t-57.5 -22.5h-16zM316 124v425q0 11 -8 11h-93q-7 0 -7 -11v-425q0 -9 7 -9h93q8 0 8 9z" />
    <glyph glyph-name="R" unicode="R" horiz-adv-x="522" 
d="M79 675h299q35 0 57 -22.5t22 -57.5v-294q0 -31 -16.5 -52t-44.5 -26l63 -223h-133l-61 221h-51v-221h-135v675zM324 339v211q0 10 -8 10h-102v-230h102q8 0 8 9z" />
    <glyph glyph-name="S" unicode="S" horiz-adv-x="430" 
d="M57 0v118h176q9 0 9 9v142q0 9 -9 9h-104q-31 0 -51.5 20.5t-20.5 52.5v251q0 32 20 52.5t52 20.5h240v-115h-169q-9 0 -9 -11v-140q0 -9 9 -9h104q32 0 52.5 -20.5t20.5 -52.5v-254q0 -32 -20.5 -52.5t-52.5 -20.5h-247z" />
    <glyph glyph-name="T" unicode="T" horiz-adv-x="399" 
d="M22 675h355v-115h-110v-560h-135v560h-110v115z" />
    <glyph glyph-name="U" unicode="U" horiz-adv-x="534" 
d="M79 675h135v-553q0 -3 2.5 -6t4.5 -3h90q8 0 8 9v553h136v-595q0 -35 -23 -57.5t-58 -22.5h-215q-35 0 -57.5 22.5t-22.5 57.5v595z" />
    <glyph glyph-name="V" unicode="V" horiz-adv-x="479" 
d="M315 675h132l-142 -675h-133l-141 675h141l68 -459z" />
    <glyph glyph-name="W" unicode="W" horiz-adv-x="657" 
d="M506 675h120l-102 -675h-115l-79 422l-81 -422h-115l-103 675h130l47 -432l68 432h112l68 -428z" />
    <glyph glyph-name="X" unicode="X" horiz-adv-x="475" 
d="M21 0l146 340l-141 335h142l80 -198l63 198h136l-138 -347l138 -328h-140l-79 194l-71 -194h-136z" />
    <glyph glyph-name="Y" unicode="Y" horiz-adv-x="492" 
d="M313 0h-134v204h-43q-35 0 -57.5 22.5t-22.5 57.5v391h135v-342q0 -10 9 -10h96q5 0 5 10v342h135v-391q0 -35 -23 -57.5t-58 -22.5h-42v-204z" />
    <glyph glyph-name="Z" unicode="Z" horiz-adv-x="425" 
d="M39 106l194 456h-183v113h329v-106l-195 -456h203v-113h-348v106z" />
    <glyph glyph-name="bracketleft" unicode="[" horiz-adv-x="337" 
d="M320 -180h-257v930h257v-106h-126v-718h126v-106z" />
    <glyph glyph-name="backslash" unicode="\" horiz-adv-x="402" 
d="M267 -71l-259 817h126l260 -817h-127z" />
    <glyph glyph-name="bracketright" unicode="]" horiz-adv-x="337" 
d="M274 -180h-257v106h126v718h-126v106h257v-930z" />
    <glyph glyph-name="asciicircum" unicode="^" horiz-adv-x="349" 
d="M176 817l-64 -74h-112l135 151h82l135 -151h-112z" />
    <glyph glyph-name="underscore" unicode="_" horiz-adv-x="530" 
d="M31 -65h467v-119h-467v119z" />
    <glyph glyph-name="grave" unicode="`" horiz-adv-x="231" 
d="M95 744l-95 151h128l63 -151h-96z" />
    <glyph glyph-name="a" unicode="a" horiz-adv-x="521" 
d="M448 602v-602h-134v186h-107v-186h-134v602q0 32 20 52.5t52 20.5h230q32 0 52.5 -20.5t20.5 -52.5zM207 298h107v248q0 16 -18 16h-72q-17 0 -17 -16v-248z" />
    <glyph glyph-name="b" unicode="b" horiz-adv-x="529" 
d="M387 0h-308v675h307q34 0 55 -21t21 -53v-175q0 -74 -77 -89q36 -8 57 -30.5t21 -55.5v-176q0 -34 -21 -54.5t-55 -20.5zM329 123v151q0 14 -14 14h-101v-178h101q14 0 14 13zM329 408v140q0 15 -14 15h-101v-170h101q14 0 14 15z" />
    <glyph glyph-name="c" unicode="c" horiz-adv-x="495" 
d="M310 252h135v-176q0 -35 -22.5 -57.5t-57.5 -22.5h-213q-35 0 -57 22.5t-22 57.5v522q0 36 22 58.5t57 22.5h213q35 0 57.5 -22.5t22.5 -58.5v-173h-135v128q0 11 -7 11h-86q-9 0 -9 -11v-431q0 -10 9 -10h84q9 0 9 10v130z" />
    <glyph glyph-name="d" unicode="d" horiz-adv-x="532" 
d="M79 675h271q47 0 78 -31t31 -78v-456q0 -48 -31 -79t-78 -31h-271v675zM324 143v389q0 28 -28 28h-82v-445h82q13 0 20.5 8t7.5 20z" />
    <glyph glyph-name="e" unicode="e" 
d="M79 0v675h319v-115h-184v-163h155v-113h-155v-169h184v-115h-319z" />
    <glyph glyph-name="f" unicode="f" horiz-adv-x="431" 
d="M79 0v675h316v-115h-182v-193h154v-114h-154v-253h-134z" />
    <glyph glyph-name="g" unicode="g" horiz-adv-x="525" 
d="M261 300v113h221v-113h-41v-223q0 -35 -22.5 -57.5t-58.5 -22.5h-207q-36 0 -58 22.5t-22 57.5v521q0 36 22 58.5t58 22.5h289v-120h-226q-8 0 -8 -11v-421q0 -10 8 -10h93q9 0 9 10v173h-57z" />
    <glyph glyph-name="h" unicode="h" horiz-adv-x="545" 
d="M466 675v-675h-134v279h-119v-279h-134v675h134v-283h119v283h134z" />
    <glyph glyph-name="i" unicode="i" horiz-adv-x="289" 
d="M210 675v-675h-131v675h131z" />
    <glyph glyph-name="j" unicode="j" horiz-adv-x="475" 
d="M52 323h131v-202q0 -9 9 -9h59q11 0 11 9v554h134v-601q0 -33 -22 -55t-54 -22h-191q-31 0 -54 22.5t-23 54.5v249z" />
    <glyph glyph-name="k" unicode="k" horiz-adv-x="517" 
d="M497 0h-143l-111 259l-30 -45v-214h-134v675h134v-282l136 282h142l-157 -310z" />
    <glyph glyph-name="l" unicode="l" horiz-adv-x="406" 
d="M79 0v675h134v-558h161v-117h-295z" />
    <glyph glyph-name="m" unicode="m" horiz-adv-x="631" 
d="M288 160l-86 231v-391h-123v675h127l109 -319l104 319h133v-675h-128v394l-86 -234h-50z" />
    <glyph glyph-name="n" unicode="n" horiz-adv-x="550" 
d="M352 0l-154 374v-374h-119v675h118l155 -390v390h119v-675h-119z" />
    <glyph glyph-name="o" unicode="o" horiz-adv-x="528" 
d="M146 679h236q32 0 52.5 -20.5t20.5 -52.5v-536q0 -32 -20.5 -52.5t-52.5 -20.5h-236q-33 0 -53 20.5t-20 52.5v536q0 32 20 52.5t53 20.5zM320 121v434q0 11 -8 11h-97q-7 0 -7 -11v-434q0 -9 7 -9h97q8 0 8 9z" />
    <glyph glyph-name="p" unicode="p" horiz-adv-x="510" 
d="M79 675h295q35 0 58 -22.5t23 -57.5v-332q0 -35 -23 -57.5t-58 -22.5h-159v-183h-136v675zM215 295h96q8 0 8 9v246q0 10 -8 10h-96v-265z" />
    <glyph glyph-name="q" unicode="q" horiz-adv-x="525" 
d="M399 -113h-129l-42 113h-76q-35 0 -57 22.5t-22 57.5v515q0 35 22 57.5t57 22.5h220q35 0 57.5 -22.5t22.5 -57.5v-515q0 -35 -22.5 -57.5t-57.5 -22.5h-16zM316 124v425q0 11 -8 11h-93q-7 0 -7 -11v-425q0 -9 7 -9h93q8 0 8 9z" />
    <glyph glyph-name="r" unicode="r" horiz-adv-x="522" 
d="M79 675h299q35 0 57 -22.5t22 -57.5v-294q0 -31 -16.5 -52t-44.5 -26l63 -223h-133l-61 221h-51v-221h-135v675zM324 339v211q0 10 -8 10h-102v-230h102q8 0 8 9z" />
    <glyph glyph-name="s" unicode="s" horiz-adv-x="430" 
d="M57 0v118h176q9 0 9 9v142q0 9 -9 9h-104q-31 0 -51.5 20.5t-20.5 52.5v251q0 32 20 52.5t52 20.5h240v-115h-169q-9 0 -9 -11v-140q0 -9 9 -9h104q32 0 52.5 -20.5t20.5 -52.5v-254q0 -32 -20.5 -52.5t-52.5 -20.5h-247z" />
    <glyph glyph-name="t" unicode="t" horiz-adv-x="399" 
d="M22 675h355v-115h-110v-560h-135v560h-110v115z" />
    <glyph glyph-name="u" unicode="u" horiz-adv-x="534" 
d="M79 675h135v-553q0 -3 2.5 -6t4.5 -3h90q8 0 8 9v553h136v-595q0 -35 -23 -57.5t-58 -22.5h-215q-35 0 -57.5 22.5t-22.5 57.5v595z" />
    <glyph glyph-name="v" unicode="v" horiz-adv-x="479" 
d="M315 675h132l-142 -675h-133l-141 675h141l68 -459z" />
    <glyph glyph-name="w" unicode="w" horiz-adv-x="657" 
d="M506 675h120l-102 -675h-115l-79 422l-81 -422h-115l-103 675h130l47 -432l68 432h112l68 -428z" />
    <glyph glyph-name="x" unicode="x" horiz-adv-x="475" 
d="M21 0l146 340l-141 335h142l80 -198l63 198h136l-138 -347l138 -328h-140l-79 194l-71 -194h-136z" />
    <glyph glyph-name="y" unicode="y" horiz-adv-x="492" 
d="M313 0h-134v204h-43q-35 0 -57.5 22.5t-22.5 57.5v391h135v-342q0 -10 9 -10h96q5 0 5 10v342h135v-391q0 -35 -23 -57.5t-58 -22.5h-42v-204z" />
    <glyph glyph-name="z" unicode="z" horiz-adv-x="425" 
d="M39 106l194 456h-183v113h329v-106l-195 -456h203v-113h-348v106z" />
    <glyph glyph-name="braceleft" unicode="{" horiz-adv-x="387" 
d="M379 -181h-138q-62 0 -94.5 33.5t-32.5 95.5v211q0 57 -55 57h-35v138h35q55 0 55 57v210q0 62 32.5 95.5t94.5 33.5h138v-106h-79q-55 0 -55 -57v-221q0 -38 -22 -54.5t-63 -26.5q41 -10 63 -27t22 -54v-222q0 -57 55 -57h79v-106z" />
    <glyph glyph-name="bar" unicode="|" horiz-adv-x="292" 
d="M213 -304h-134v1164h134v-1164z" />
    <glyph glyph-name="braceright" unicode="}" horiz-adv-x="387" 
d="M153 -181h-138v106h79q55 0 55 57v222q0 37 22 54t63 27q-41 10 -63 26.5t-22 54.5v221q0 57 -55 57h-79v106h138q62 0 94.5 -33.5t32.5 -95.5v-210q0 -57 55 -57h35v-138h-35q-55 0 -55 -57v-211q0 -62 -32.5 -95.5t-94.5 -33.5z" />
    <glyph glyph-name="asciitilde" unicode="~" horiz-adv-x="347" 
d="M106 598q36 0 72 -23.5t49 -23.5q17 0 26.5 13t9.5 33h82q0 -63 -28.5 -96.5t-76.5 -33.5q-35 0 -72.5 23.5t-50.5 23.5q-35 0 -35 -46h-82q0 63 28.5 96.5t77.5 33.5z" />
    <glyph glyph-name="uni00A0" unicode="&#xa0;" horiz-adv-x="187" 
 />
    <glyph glyph-name="exclamdown" unicode="&#xa1;" horiz-adv-x="277" 
d="M206 436l13 -436h-161l12 436h136zM212 675v-164h-149v164h149z" />
    <glyph glyph-name="cent" unicode="&#xa2;" horiz-adv-x="463" 
d="M286 605v-105h63q31 0 47.5 -17.5t16.5 -48.5v-119h-118v83q0 8 -6 8h-90q-8 0 -8 -8v-296q0 -7 8 -7h90q6 0 6 7v84h118v-129q0 -25 -16 -41t-43 -16h-68v-96h-97v96h-54q-28 0 -45 17t-17 45v377q0 27 16.5 44t43.5 17h56v105h97z" />
    <glyph glyph-name="sterling" unicode="&#xa3;" horiz-adv-x="537" 
d="M31 360h91v239q0 31 22.5 53.5t54.5 22.5h195q32 0 55.5 -22.5t23.5 -53.5v-149h-130v106q0 11 -9 11h-67q-11 0 -11 -11v-196h159v-96h-159v-156h231v-108h-445v108h80v156h-91v96z" />
    <glyph glyph-name="yen" unicode="&#xa5;" horiz-adv-x="540" 
d="M337 0h-134v109h-151v95h151v74h-151v95h116l-137 302h152l88 -243l98 243h140l-141 -302h120v-95h-151v-74h151v-95h-151v-109z" />
    <glyph glyph-name="brokenbar" unicode="&#xa6;" horiz-adv-x="292" 
d="M213 396h-134v464h134v-464zM213 -304h-134v478h134v-478z" />
    <glyph glyph-name="section" unicode="&#xa7;" horiz-adv-x="479" 
d="M84 -154v105h185q10 0 10 11v75q0 7 -10 9l-133 41q-40 13 -59.5 29.5t-19.5 49.5v430q0 35 22 57t57 22h265v-105h-203q-10 0 -10 -11v-75q0 -7 10 -9l146 -44q40 -13 59.5 -29.5t19.5 -49.5v-427q0 -35 -22 -57t-57 -22h-260zM196 186l104 -36v166q0 6 -15 12l-104 36
v-166q0 -6 15 -12z" />
    <glyph glyph-name="dieresis" unicode="&#xa8;" horiz-adv-x="349" 
d="M0 768v119h123v-119h-123zM195 768v119h123v-119h-123z" />
    <glyph glyph-name="copyright" unicode="&#xa9;" horiz-adv-x="820" 
d="M169 675h482q35 0 57 -22t22 -57v-517q0 -35 -22 -57t-57 -22h-482q-35 0 -57 22t-22 57v517q0 35 22 57t57 22zM628 96v480q0 5 -4.5 9.5t-9.5 4.5h-410q-4 0 -8 -4.5t-4 -9.5v-480q0 -11 12 -11h410q14 0 14 11zM452 290h98v-98q0 -18 -13 -31t-31 -13h-191
q-18 0 -30 13t-12 31v293q0 18 12 30.5t30 12.5h191q18 0 31 -12.5t13 -30.5v-98h-98v53q0 7 -4 7h-72q-6 0 -6 -7v-204q0 -5 6 -5h72q4 0 4 5v54z" />
    <glyph glyph-name="ordfeminine" unicode="&#xaa;" horiz-adv-x="267" 
d="M208 651v-178h-52v50h-46v-50h-52v178q0 24 23 24h103q10 0 17 -6.5t7 -17.5zM110 567h46v61q0 6 -7 6h-33q-6 0 -6 -6v-61z" />
    <glyph glyph-name="guillemotleft" unicode="&#xab;" horiz-adv-x="669" 
d="M571 146l-245 148v85l245 147v-123l-142 -65l142 -65v-127zM283 146l-245 148v85l245 147v-123l-142 -65l142 -65v-127z" />
    <glyph glyph-name="registered" unicode="&#xae;" horiz-adv-x="820" 
d="M169 675h482q35 0 57 -22t22 -57v-517q0 -35 -22 -57t-57 -22h-482q-35 0 -57 22t-22 57v517q0 35 22 57t57 22zM628 96v480q0 5 -4.5 9.5t-9.5 4.5h-410q-4 0 -8 -4.5t-4 -9.5v-480q0 -11 12 -11h410q14 0 14 11zM457 350v91q0 5 -5 5h-82v-101h82q5 0 5 5zM460 148
l-48 121h-42v-121h-98v380h239q18 0 30.5 -12.5t12.5 -30.5v-173q0 -19 -12.5 -31t-30.5 -12h-2l47 -121h-96z" />
    <glyph glyph-name="macron" unicode="&#xaf;" horiz-adv-x="310" 
d="M0 780v96h298v-96h-298z" />
    <glyph glyph-name="degree" unicode="&#xb0;" horiz-adv-x="312" 
d="M289 623q0 -65 -36 -98t-97 -33q-56 0 -94.5 33.5t-38.5 97.5t38.5 98t94.5 34q61 0 97 -33t36 -99zM104 623q0 -26 14 -40.5t38 -14.5q25 0 39 14.5t14 40.5q0 27 -14 42t-38 15t-38.5 -15t-14.5 -42z" />
    <glyph glyph-name="plusminus" unicode="&#xb1;" horiz-adv-x="602" 
d="M230 188v125h-151v112h151v122h137v-122h151v-112h-151v-125h-137zM523 0h-444v112h444v-112z" />
    <glyph glyph-name="acute" unicode="&#xb4;" horiz-adv-x="231" 
d="M97 744h-97l64 151h127z" />
    <glyph glyph-name="paragraph" unicode="&#xb6;" horiz-adv-x="625" 
d="M149 259q-31 0 -53.5 23t-22.5 53v264q0 32 22.5 54t53.5 22h445v-112h-97v-563h-115v563h-72v-563h-117v259h-44z" />
    <glyph glyph-name="periodcentered" unicode="&#xb7;" horiz-adv-x="306" 
d="M227 422v-166h-148v166h148z" />
    <glyph glyph-name="cedilla" unicode="&#xb8;" horiz-adv-x="331" 
d="M8 -248l13 74h141q4 0 5 4l7 43q0 4 -3 4h-143l20 124h72l-11 -53h119q15 0 23.5 -9.5t5.5 -25.5l-20 -124q-2 -16 -13.5 -26.5t-27.5 -10.5h-188z" />
    <glyph glyph-name="ordmasculine" unicode="&#xba;" horiz-adv-x="269" 
d="M82 675h104q10 0 17 -6.5t7 -17.5v-155q0 -23 -24 -23h-104q-24 0 -24 23v155q0 11 7 17.5t17 6.5zM157 519v109q0 3 -3 3h-41q-3 0 -3 -3v-109q0 -3 3 -3h41q3 0 3 3z" />
    <glyph glyph-name="guillemotright" unicode="&#xbb;" horiz-adv-x="670" 
d="M342 294l-245 -148v127l142 65l-142 65v123l245 -147v-85zM631 294l-245 -148v127l142 65l-142 65v123l245 -147v-85z" />
    <glyph glyph-name="onequarter" unicode="&#xbc;" horiz-adv-x="441" 
d="M330 111v-56h-28v-55h-61v55h-110v187h62v-135h48v135h61v-131h28zM142 614l-8 44l63 22h59v-193h57v-49h-184v49h62v140zM31 368h378v-52h-378v52z" />
    <glyph glyph-name="onehalf" unicode="&#xbd;" horiz-adv-x="441" 
d="M194 101v-45h112v-56h-175v121q0 27 27 27h87v42h-109v52h145q28 0 28 -28v-85q0 -28 -28 -28h-87zM142 614l-8 44l63 22h59v-193h57v-49h-184v49h62v140zM31 368h378v-52h-378v52z" />
    <glyph glyph-name="threequarters" unicode="&#xbe;" horiz-adv-x="441" 
d="M336 111v-56h-28v-55h-61v55h-110v187h62v-135h48v135h61v-131h28zM308 594q0 -27 -28 -31q28 -8 28 -40v-58q0 -27 -27 -27h-138v51h102v48h-96v48h96v43h-102v52h138q27 0 27 -28v-58zM31 368h378v-52h-378v52z" />
    <glyph glyph-name="questiondown" unicode="&#xbf;" horiz-adv-x="456" 
d="M149 -1q-91 0 -91 77v169q0 46 26 71.5t75 25.5h53q4 0 7.5 3.5t3.5 7.5v91h132v-131q0 -78 -83 -78h-74q-10 0 -10 -10v-99q0 -10 10 -10h200v-117h-249zM214 511v164h149v-164h-149z" />
    <glyph glyph-name="Agrave" unicode="&#xc0;" horiz-adv-x="521" 
d="M448 602v-602h-134v186h-107v-186h-134v602q0 32 20 52.5t52 20.5h230q32 0 52.5 -20.5t20.5 -52.5zM207 298h107v248q0 16 -18 16h-72q-17 0 -17 -16v-248zM213 744l-95 151h128l63 -151h-96z" />
    <glyph glyph-name="Aacute" unicode="&#xc1;" horiz-adv-x="521" 
d="M448 602v-602h-134v186h-107v-186h-134v602q0 32 20 52.5t52 20.5h230q32 0 52.5 -20.5t20.5 -52.5zM207 298h107v248q0 16 -18 16h-72q-17 0 -17 -16v-248zM307 744h-97l64 151h127z" />
    <glyph glyph-name="Acircumflex" unicode="&#xc2;" horiz-adv-x="521" 
d="M448 602v-602h-134v186h-107v-186h-134v602q0 32 20 52.5t52 20.5h230q32 0 52.5 -20.5t20.5 -52.5zM207 298h107v248q0 16 -18 16h-72q-17 0 -17 -16v-248zM259 817l-64 -74h-112l135 151h82l135 -151h-112z" />
    <glyph glyph-name="Atilde" unicode="&#xc3;" horiz-adv-x="521" 
d="M448 602v-602h-134v186h-107v-186h-134v602q0 32 20 52.5t52 20.5h230q32 0 52.5 -20.5t20.5 -52.5zM207 298h107v248q0 16 -18 16h-72q-17 0 -17 -16v-248zM194 872q36 0 72 -23.5t49 -23.5q17 0 26.5 13t9.5 33h82q0 -63 -28.5 -96.5t-76.5 -33.5q-35 0 -72.5 23.5
t-50.5 23.5q-35 0 -35 -46h-82q0 63 28.5 96.5t77.5 33.5z" />
    <glyph glyph-name="Adieresis" unicode="&#xc4;" horiz-adv-x="521" 
d="M448 602v-602h-134v186h-107v-186h-134v602q0 32 20 52.5t52 20.5h230q32 0 52.5 -20.5t20.5 -52.5zM207 298h107v248q0 16 -18 16h-72q-17 0 -17 -16v-248zM103 768v119h123v-119h-123zM298 768v119h123v-119h-123z" />
    <glyph glyph-name="Aring" unicode="&#xc5;" horiz-adv-x="521" 
d="M448 602v-602h-134v186h-107v-186h-134v602q0 32 20 52.5t52 20.5h230q32 0 52.5 -20.5t20.5 -52.5zM207 298h107v248q0 16 -18 16h-72q-17 0 -17 -16v-248zM367 840q0 -43 -31 -73.5t-77 -30.5q-42 0 -74 31t-32 73q0 43 32 73.5t74 30.5q46 0 77 -30t31 -74zM216 840
q0 -20 11.5 -31.5t31.5 -11.5t33 12t13 31q0 46 -46 46q-43 0 -43 -46z" />
    <glyph glyph-name="AE" unicode="&#xc6;" horiz-adv-x="709" 
d="M658 0h-334v186h-117v-186h-134v602q0 32 20 52.5t52 20.5h513v-115h-199v-163h170v-112h-170v-170h199v-115zM207 298h117v264h-100q-17 0 -17 -16v-248z" />
    <glyph glyph-name="Ccedilla" unicode="&#xc7;" horiz-adv-x="495" 
d="M147 -248l13 74h141q4 0 5 4l7 43q0 4 -3 4h-143l19 119h-34q-35 0 -57 22.5t-22 57.5v522q0 36 22 58.5t57 22.5h213q35 0 57.5 -22.5t22.5 -58.5v-173h-135v128q0 11 -7 11h-86q-9 0 -9 -11v-431q0 -10 9 -10h84q9 0 9 10v130h135v-176q0 -35 -22.5 -57.5t-57.5 -22.5
h-107l-10 -48h119q15 0 23.5 -9.5t5.5 -25.5l-20 -124q-2 -16 -13.5 -26.5t-27.5 -10.5h-188z" />
    <glyph glyph-name="Egrave" unicode="&#xc8;" 
d="M79 0v675h319v-115h-184v-163h155v-113h-155v-169h184v-115h-319zM194 744l-95 151h128l63 -151h-96z" />
    <glyph glyph-name="Eacute" unicode="&#xc9;" 
d="M79 0v675h319v-115h-184v-163h155v-113h-155v-169h184v-115h-319zM288 744h-97l64 151h127z" />
    <glyph glyph-name="Ecircumflex" unicode="&#xca;" 
d="M79 0v675h319v-115h-184v-163h155v-113h-155v-169h184v-115h-319zM240 817l-64 -74h-112l135 151h82l135 -151h-112z" />
    <glyph glyph-name="Edieresis" unicode="&#xcb;" 
d="M79 0v675h319v-115h-184v-163h155v-113h-155v-169h184v-115h-319zM85 768v119h123v-119h-123zM280 768v119h123v-119h-123z" />
    <glyph glyph-name="Igrave" unicode="&#xcc;" horiz-adv-x="289" 
d="M210 675v-675h-131v675h131zM98 744l-95 151h128l63 -151h-96z" />
    <glyph glyph-name="Iacute" unicode="&#xcd;" horiz-adv-x="289" 
d="M210 675v-675h-131v675h131zM192 744h-97l64 151h127z" />
    <glyph glyph-name="Icircumflex" unicode="&#xce;" horiz-adv-x="289" 
d="M210 675v-675h-131v675h131zM145 817l-64 -74h-112l135 151h82l135 -151h-112z" />
    <glyph glyph-name="Idieresis" unicode="&#xcf;" horiz-adv-x="289" 
d="M210 675v-675h-131v675h131zM-11 768v119h123v-119h-123zM184 768v119h123v-119h-123z" />
    <glyph glyph-name="Eth" unicode="&#xd0;" horiz-adv-x="526" 
d="M33 284v101h46v290h266q47 0 78 -31t31 -78v-456q0 -48 -31 -79t-78 -31h-266v284h-46zM320 143v389q0 28 -28 28h-78v-175h50v-101h-50v-169h78q13 0 20.5 8t7.5 20z" />
    <glyph glyph-name="Ntilde" unicode="&#xd1;" horiz-adv-x="550" 
d="M352 0l-154 374v-374h-119v675h118l155 -390v390h119v-675h-119zM212 872q36 0 72 -23.5t49 -23.5q17 0 26.5 13t9.5 33h82q0 -63 -28.5 -96.5t-76.5 -33.5q-35 0 -72.5 23.5t-50.5 23.5q-35 0 -35 -46h-82q0 63 28.5 96.5t77.5 33.5z" />
    <glyph glyph-name="Ograve" unicode="&#xd2;" horiz-adv-x="528" 
d="M146 679h236q32 0 52.5 -20.5t20.5 -52.5v-536q0 -32 -20.5 -52.5t-52.5 -20.5h-236q-33 0 -53 20.5t-20 52.5v536q0 32 20 52.5t53 20.5zM320 121v434q0 11 -8 11h-97q-7 0 -7 -11v-434q0 -9 7 -9h97q8 0 8 9zM217 744l-95 151h128l63 -151h-96z" />
    <glyph glyph-name="Oacute" unicode="&#xd3;" horiz-adv-x="528" 
d="M146 679h236q32 0 52.5 -20.5t20.5 -52.5v-536q0 -32 -20.5 -52.5t-52.5 -20.5h-236q-33 0 -53 20.5t-20 52.5v536q0 32 20 52.5t53 20.5zM320 121v434q0 11 -8 11h-97q-7 0 -7 -11v-434q0 -9 7 -9h97q8 0 8 9zM311 744h-97l64 151h127z" />
    <glyph glyph-name="Ocircumflex" unicode="&#xd4;" horiz-adv-x="528" 
d="M146 679h236q32 0 52.5 -20.5t20.5 -52.5v-536q0 -32 -20.5 -52.5t-52.5 -20.5h-236q-33 0 -53 20.5t-20 52.5v536q0 32 20 52.5t53 20.5zM320 121v434q0 11 -8 11h-97q-7 0 -7 -11v-434q0 -9 7 -9h97q8 0 8 9zM263 817l-64 -74h-112l135 151h82l135 -151h-112z" />
    <glyph glyph-name="Otilde" unicode="&#xd5;" horiz-adv-x="528" 
d="M146 679h236q32 0 52.5 -20.5t20.5 -52.5v-536q0 -32 -20.5 -52.5t-52.5 -20.5h-236q-33 0 -53 20.5t-20 52.5v536q0 32 20 52.5t53 20.5zM320 121v434q0 11 -8 11h-97q-7 0 -7 -11v-434q0 -9 7 -9h97q8 0 8 9zM198 872q36 0 72 -23.5t49 -23.5q17 0 26.5 13t9.5 33h82
q0 -63 -28.5 -96.5t-76.5 -33.5q-35 0 -72.5 23.5t-50.5 23.5q-35 0 -35 -46h-82q0 63 28.5 96.5t77.5 33.5z" />
    <glyph glyph-name="Odieresis" unicode="&#xd6;" horiz-adv-x="528" 
d="M146 679h236q32 0 52.5 -20.5t20.5 -52.5v-536q0 -32 -20.5 -52.5t-52.5 -20.5h-236q-33 0 -53 20.5t-20 52.5v536q0 32 20 52.5t53 20.5zM320 121v434q0 11 -8 11h-97q-7 0 -7 -11v-434q0 -9 7 -9h97q8 0 8 9zM108 768v119h123v-119h-123zM303 768v119h123v-119h-123z
" />
    <glyph glyph-name="multiply" unicode="&#xd7;" horiz-adv-x="503" 
d="M455 445l-123 -122l121 -121l-80 -81l-122 121l-123 -122l-80 81l122 122l-120 120l81 81l120 -121l123 123z" />
    <glyph glyph-name="Oslash" unicode="&#xd8;" horiz-adv-x="528" 
d="M106 -81l30 80q-27 5 -45 24t-18 47v536q0 32 20 52.5t53 20.5h190l27 75h53l-29 -75q30 -2 49 -22t19 -51v-536q0 -32 -20.5 -52.5t-52.5 -20.5h-192l-30 -78h-54zM333 111l12 453v2l-117 -464h97q8 0 8 9zM194 564l-11 -436l112 447h-94q-7 0 -7 -11z" />
    <glyph glyph-name="Ugrave" unicode="&#xd9;" horiz-adv-x="534" 
d="M79 675h135v-553q0 -3 2.5 -6t4.5 -3h90q8 0 8 9v553h136v-595q0 -35 -23 -57.5t-58 -22.5h-215q-35 0 -57.5 22.5t-22.5 57.5v595zM219 744l-95 151h128l63 -151h-96z" />
    <glyph glyph-name="Uacute" unicode="&#xda;" horiz-adv-x="534" 
d="M79 675h135v-553q0 -3 2.5 -6t4.5 -3h90q8 0 8 9v553h136v-595q0 -35 -23 -57.5t-58 -22.5h-215q-35 0 -57.5 22.5t-22.5 57.5v595zM313 744h-97l64 151h127z" />
    <glyph glyph-name="Ucircumflex" unicode="&#xdb;" horiz-adv-x="534" 
d="M79 675h135v-553q0 -3 2.5 -6t4.5 -3h90q8 0 8 9v553h136v-595q0 -35 -23 -57.5t-58 -22.5h-215q-35 0 -57.5 22.5t-22.5 57.5v595zM266 817l-64 -74h-112l135 151h82l135 -151h-112z" />
    <glyph glyph-name="Udieresis" unicode="&#xdc;" horiz-adv-x="534" 
d="M79 675h135v-553q0 -3 2.5 -6t4.5 -3h90q8 0 8 9v553h136v-595q0 -35 -23 -57.5t-58 -22.5h-215q-35 0 -57.5 22.5t-22.5 57.5v595zM110 768v119h123v-119h-123zM305 768v119h123v-119h-123z" />
    <glyph glyph-name="Yacute" unicode="&#xdd;" horiz-adv-x="492" 
d="M313 0h-134v204h-43q-35 0 -57.5 22.5t-22.5 57.5v391h135v-342q0 -10 9 -10h96q5 0 5 10v342h135v-391q0 -35 -23 -57.5t-58 -22.5h-42v-204zM294 744h-97l64 151h127z" />
    <glyph glyph-name="Thorn" unicode="&#xde;" horiz-adv-x="521" 
d="M79 675h134v-114h177q31 0 53.5 -22t22.5 -54v-289q0 -30 -22.5 -53t-53.5 -23h-177v-120h-134v675zM213 234h110q9 0 9 9v192q0 10 -9 10h-110v-211z" />
    <glyph glyph-name="germandbls" unicode="&#xdf;" horiz-adv-x="570" 
d="M216 564v-564h-134v675h365q50 0 66.5 -30t-7.5 -76l-101 -194q66 -2 89.5 -28t23.5 -88v-173q0 -40 -24.5 -63t-65.5 -23h-148v128h96q10 0 10 10v128q0 11 -10 11h-90v106l78 168q6 13 -6 13h-142z" />
    <glyph glyph-name="agrave" unicode="&#xe0;" horiz-adv-x="521" 
d="M448 602v-602h-134v186h-107v-186h-134v602q0 32 20 52.5t52 20.5h230q32 0 52.5 -20.5t20.5 -52.5zM207 298h107v248q0 16 -18 16h-72q-17 0 -17 -16v-248zM213 744l-95 151h128l63 -151h-96z" />
    <glyph glyph-name="aacute" unicode="&#xe1;" horiz-adv-x="521" 
d="M448 602v-602h-134v186h-107v-186h-134v602q0 32 20 52.5t52 20.5h230q32 0 52.5 -20.5t20.5 -52.5zM207 298h107v248q0 16 -18 16h-72q-17 0 -17 -16v-248zM307 744h-97l64 151h127z" />
    <glyph glyph-name="acircumflex" unicode="&#xe2;" horiz-adv-x="521" 
d="M448 602v-602h-134v186h-107v-186h-134v602q0 32 20 52.5t52 20.5h230q32 0 52.5 -20.5t20.5 -52.5zM207 298h107v248q0 16 -18 16h-72q-17 0 -17 -16v-248zM259 817l-64 -74h-112l135 151h82l135 -151h-112z" />
    <glyph glyph-name="atilde" unicode="&#xe3;" horiz-adv-x="521" 
d="M448 602v-602h-134v186h-107v-186h-134v602q0 32 20 52.5t52 20.5h230q32 0 52.5 -20.5t20.5 -52.5zM207 298h107v248q0 16 -18 16h-72q-17 0 -17 -16v-248zM194 872q36 0 72 -23.5t49 -23.5q17 0 26.5 13t9.5 33h82q0 -63 -28.5 -96.5t-76.5 -33.5q-35 0 -72.5 23.5
t-50.5 23.5q-35 0 -35 -46h-82q0 63 28.5 96.5t77.5 33.5z" />
    <glyph glyph-name="adieresis" unicode="&#xe4;" horiz-adv-x="521" 
d="M448 602v-602h-134v186h-107v-186h-134v602q0 32 20 52.5t52 20.5h230q32 0 52.5 -20.5t20.5 -52.5zM207 298h107v248q0 16 -18 16h-72q-17 0 -17 -16v-248zM103 768v119h123v-119h-123zM298 768v119h123v-119h-123z" />
    <glyph glyph-name="aring" unicode="&#xe5;" horiz-adv-x="521" 
d="M448 602v-602h-134v186h-107v-186h-134v602q0 32 20 52.5t52 20.5h230q32 0 52.5 -20.5t20.5 -52.5zM207 298h107v248q0 16 -18 16h-72q-17 0 -17 -16v-248zM367 840q0 -43 -31 -73.5t-77 -30.5q-42 0 -74 31t-32 73q0 43 32 73.5t74 30.5q46 0 77 -30t31 -74zM216 840
q0 -20 11.5 -31.5t31.5 -11.5t33 12t13 31q0 46 -46 46q-43 0 -43 -46z" />
    <glyph glyph-name="ae" unicode="&#xe6;" horiz-adv-x="709" 
d="M658 0h-334v186h-117v-186h-134v602q0 32 20 52.5t52 20.5h513v-115h-199v-163h170v-112h-170v-170h199v-115zM207 298h117v264h-100q-17 0 -17 -16v-248z" />
    <glyph glyph-name="ccedilla" unicode="&#xe7;" horiz-adv-x="495" 
d="M147 -248l13 74h141q4 0 5 4l7 43q0 4 -3 4h-143l19 119h-34q-35 0 -57 22.5t-22 57.5v522q0 36 22 58.5t57 22.5h213q35 0 57.5 -22.5t22.5 -58.5v-173h-135v128q0 11 -7 11h-86q-9 0 -9 -11v-431q0 -10 9 -10h84q9 0 9 10v130h135v-176q0 -35 -22.5 -57.5t-57.5 -22.5
h-107l-10 -48h119q15 0 23.5 -9.5t5.5 -25.5l-20 -124q-2 -16 -13.5 -26.5t-27.5 -10.5h-188z" />
    <glyph glyph-name="egrave" unicode="&#xe8;" 
d="M79 0v675h319v-115h-184v-163h155v-113h-155v-169h184v-115h-319zM194 744l-95 151h128l63 -151h-96z" />
    <glyph glyph-name="eacute" unicode="&#xe9;" 
d="M79 0v675h319v-115h-184v-163h155v-113h-155v-169h184v-115h-319zM288 744h-97l64 151h127z" />
    <glyph glyph-name="ecircumflex" unicode="&#xea;" 
d="M79 0v675h319v-115h-184v-163h155v-113h-155v-169h184v-115h-319zM240 817l-64 -74h-112l135 151h82l135 -151h-112z" />
    <glyph glyph-name="edieresis" unicode="&#xeb;" 
d="M79 0v675h319v-115h-184v-163h155v-113h-155v-169h184v-115h-319zM85 768v119h123v-119h-123zM280 768v119h123v-119h-123z" />
    <glyph glyph-name="igrave" unicode="&#xec;" horiz-adv-x="289" 
d="M210 675v-675h-131v675h131zM98 744l-95 151h128l63 -151h-96z" />
    <glyph glyph-name="iacute" unicode="&#xed;" horiz-adv-x="289" 
d="M210 675v-675h-131v675h131zM192 744h-97l64 151h127z" />
    <glyph glyph-name="icircumflex" unicode="&#xee;" horiz-adv-x="289" 
d="M210 675v-675h-131v675h131zM145 817l-64 -74h-112l135 151h82l135 -151h-112z" />
    <glyph glyph-name="idieresis" unicode="&#xef;" horiz-adv-x="289" 
d="M210 675v-675h-131v675h131zM-11 768v119h123v-119h-123zM184 768v119h123v-119h-123z" />
    <glyph glyph-name="eth" unicode="&#xf0;" horiz-adv-x="526" 
d="M33 284v101h46v290h266q47 0 78 -31t31 -78v-456q0 -48 -31 -79t-78 -31h-266v284h-46zM320 143v389q0 28 -28 28h-78v-175h50v-101h-50v-169h78q13 0 20.5 8t7.5 20z" />
    <glyph glyph-name="ntilde" unicode="&#xf1;" horiz-adv-x="550" 
d="M352 0l-154 374v-374h-119v675h118l155 -390v390h119v-675h-119zM212 872q36 0 72 -23.5t49 -23.5q17 0 26.5 13t9.5 33h82q0 -63 -28.5 -96.5t-76.5 -33.5q-35 0 -72.5 23.5t-50.5 23.5q-35 0 -35 -46h-82q0 63 28.5 96.5t77.5 33.5z" />
    <glyph glyph-name="ograve" unicode="&#xf2;" horiz-adv-x="528" 
d="M146 679h236q32 0 52.5 -20.5t20.5 -52.5v-536q0 -32 -20.5 -52.5t-52.5 -20.5h-236q-33 0 -53 20.5t-20 52.5v536q0 32 20 52.5t53 20.5zM320 121v434q0 11 -8 11h-97q-7 0 -7 -11v-434q0 -9 7 -9h97q8 0 8 9zM217 744l-95 151h128l63 -151h-96z" />
    <glyph glyph-name="oacute" unicode="&#xf3;" horiz-adv-x="528" 
d="M146 679h236q32 0 52.5 -20.5t20.5 -52.5v-536q0 -32 -20.5 -52.5t-52.5 -20.5h-236q-33 0 -53 20.5t-20 52.5v536q0 32 20 52.5t53 20.5zM320 121v434q0 11 -8 11h-97q-7 0 -7 -11v-434q0 -9 7 -9h97q8 0 8 9zM311 744h-97l64 151h127z" />
    <glyph glyph-name="ocircumflex" unicode="&#xf4;" horiz-adv-x="528" 
d="M146 679h236q32 0 52.5 -20.5t20.5 -52.5v-536q0 -32 -20.5 -52.5t-52.5 -20.5h-236q-33 0 -53 20.5t-20 52.5v536q0 32 20 52.5t53 20.5zM320 121v434q0 11 -8 11h-97q-7 0 -7 -11v-434q0 -9 7 -9h97q8 0 8 9zM263 817l-64 -74h-112l135 151h82l135 -151h-112z" />
    <glyph glyph-name="otilde" unicode="&#xf5;" horiz-adv-x="528" 
d="M146 679h236q32 0 52.5 -20.5t20.5 -52.5v-536q0 -32 -20.5 -52.5t-52.5 -20.5h-236q-33 0 -53 20.5t-20 52.5v536q0 32 20 52.5t53 20.5zM320 121v434q0 11 -8 11h-97q-7 0 -7 -11v-434q0 -9 7 -9h97q8 0 8 9zM198 872q36 0 72 -23.5t49 -23.5q17 0 26.5 13t9.5 33h82
q0 -63 -28.5 -96.5t-76.5 -33.5q-35 0 -72.5 23.5t-50.5 23.5q-35 0 -35 -46h-82q0 63 28.5 96.5t77.5 33.5z" />
    <glyph glyph-name="odieresis" unicode="&#xf6;" horiz-adv-x="528" 
d="M146 679h236q32 0 52.5 -20.5t20.5 -52.5v-536q0 -32 -20.5 -52.5t-52.5 -20.5h-236q-33 0 -53 20.5t-20 52.5v536q0 32 20 52.5t53 20.5zM320 121v434q0 11 -8 11h-97q-7 0 -7 -11v-434q0 -9 7 -9h97q8 0 8 9zM108 768v119h123v-119h-123zM303 768v119h123v-119h-123z
" />
    <glyph glyph-name="divide" unicode="&#xf7;" horiz-adv-x="505" 
d="M469 267h-433v118h433v-118zM316 445h-127v128h127v-128zM189 67v129h127v-129h-127z" />
    <glyph glyph-name="oslash" unicode="&#xf8;" horiz-adv-x="528" 
d="M106 -81l30 80q-27 5 -45 24t-18 47v536q0 32 20 52.5t53 20.5h190l27 75h53l-29 -75q30 -2 49 -22t19 -51v-536q0 -32 -20.5 -52.5t-52.5 -20.5h-192l-30 -78h-54zM333 111l12 453v2l-117 -464h97q8 0 8 9zM194 564l-11 -436l112 447h-94q-7 0 -7 -11z" />
    <glyph glyph-name="ugrave" unicode="&#xf9;" horiz-adv-x="534" 
d="M79 675h135v-553q0 -3 2.5 -6t4.5 -3h90q8 0 8 9v553h136v-595q0 -35 -23 -57.5t-58 -22.5h-215q-35 0 -57.5 22.5t-22.5 57.5v595zM219 744l-95 151h128l63 -151h-96z" />
    <glyph glyph-name="uacute" unicode="&#xfa;" horiz-adv-x="534" 
d="M79 675h135v-553q0 -3 2.5 -6t4.5 -3h90q8 0 8 9v553h136v-595q0 -35 -23 -57.5t-58 -22.5h-215q-35 0 -57.5 22.5t-22.5 57.5v595zM313 744h-97l64 151h127z" />
    <glyph glyph-name="ucircumflex" unicode="&#xfb;" horiz-adv-x="534" 
d="M79 675h135v-553q0 -3 2.5 -6t4.5 -3h90q8 0 8 9v553h136v-595q0 -35 -23 -57.5t-58 -22.5h-215q-35 0 -57.5 22.5t-22.5 57.5v595zM266 817l-64 -74h-112l135 151h82l135 -151h-112z" />
    <glyph glyph-name="udieresis" unicode="&#xfc;" horiz-adv-x="534" 
d="M79 675h135v-553q0 -3 2.5 -6t4.5 -3h90q8 0 8 9v553h136v-595q0 -35 -23 -57.5t-58 -22.5h-215q-35 0 -57.5 22.5t-22.5 57.5v595zM110 768v119h123v-119h-123zM305 768v119h123v-119h-123z" />
    <glyph glyph-name="yacute" unicode="&#xfd;" horiz-adv-x="492" 
d="M313 0h-134v204h-43q-35 0 -57.5 22.5t-22.5 57.5v391h135v-342q0 -10 9 -10h96q5 0 5 10v342h135v-391q0 -35 -23 -57.5t-58 -22.5h-42v-204zM294 744h-97l64 151h127z" />
    <glyph glyph-name="thorn" unicode="&#xfe;" horiz-adv-x="521" 
d="M79 675h134v-114h177q31 0 53.5 -22t22.5 -54v-289q0 -30 -22.5 -53t-53.5 -23h-177v-120h-134v675zM213 234h110q9 0 9 9v192q0 10 -9 10h-110v-211z" />
    <glyph glyph-name="ydieresis" unicode="&#xff;" horiz-adv-x="492" 
d="M313 0h-134v204h-43q-35 0 -57.5 22.5t-22.5 57.5v391h135v-342q0 -10 9 -10h96q5 0 5 10v342h135v-391q0 -35 -23 -57.5t-58 -22.5h-42v-204zM285 768v119h123v-119h-123zM90 768v119h123v-119h-123z" />
    <glyph glyph-name="Amacron" unicode="&#x100;" horiz-adv-x="521" 
d="M448 602v-602h-134v186h-107v-186h-134v602q0 32 20 52.5t52 20.5h230q32 0 52.5 -20.5t20.5 -52.5zM207 298h107v248q0 16 -18 16h-72q-17 0 -17 -16v-248zM111 780v96h298v-96h-298z" />
    <glyph glyph-name="amacron" unicode="&#x101;" horiz-adv-x="521" 
d="M448 602v-602h-134v186h-107v-186h-134v602q0 32 20 52.5t52 20.5h230q32 0 52.5 -20.5t20.5 -52.5zM207 298h107v248q0 16 -18 16h-72q-17 0 -17 -16v-248zM111 780v96h298v-96h-298z" />
    <glyph glyph-name="Abreve" unicode="&#x102;" horiz-adv-x="521" 
d="M448 602v-602h-134v186h-107v-186h-134v602q0 32 20 52.5t52 20.5h230q32 0 52.5 -20.5t20.5 -52.5zM207 298h107v248q0 16 -18 16h-72q-17 0 -17 -16v-248zM259 822q58 0 58 65h91q0 -142 -149 -142q-154 0 -154 142h96q0 -65 58 -65z" />
    <glyph glyph-name="abreve" unicode="&#x103;" horiz-adv-x="521" 
d="M448 602v-602h-134v186h-107v-186h-134v602q0 32 20 52.5t52 20.5h230q32 0 52.5 -20.5t20.5 -52.5zM207 298h107v248q0 16 -18 16h-72q-17 0 -17 -16v-248zM259 822q58 0 58 65h91q0 -142 -149 -142q-154 0 -154 142h96q0 -65 58 -65z" />
    <glyph glyph-name="Aogonek" unicode="&#x104;" horiz-adv-x="521" 
d="M479 -205h-174q-37 0 -37 33v45q0 21 15 45l52 82h-21v186h-107v-186h-134v602q0 32 20 52.5t52 20.5h230q32 0 52.5 -20.5t20.5 -52.5v-602l-81 -117h112v-88zM207 298h107v248q0 16 -18 16h-72q-17 0 -17 -16v-248z" />
    <glyph glyph-name="aogonek" unicode="&#x105;" horiz-adv-x="521" 
d="M479 -205h-174q-37 0 -37 33v45q0 21 15 45l52 82h-21v186h-107v-186h-134v602q0 32 20 52.5t52 20.5h230q32 0 52.5 -20.5t20.5 -52.5v-602l-81 -117h112v-88zM207 298h107v248q0 16 -18 16h-72q-17 0 -17 -16v-248z" />
    <glyph glyph-name="Cacute" unicode="&#x106;" horiz-adv-x="495" 
d="M310 252h135v-176q0 -35 -22.5 -57.5t-57.5 -22.5h-213q-35 0 -57 22.5t-22 57.5v522q0 36 22 58.5t57 22.5h213q35 0 57.5 -22.5t22.5 -58.5v-173h-135v128q0 11 -7 11h-86q-9 0 -9 -11v-431q0 -10 9 -10h86q2 0 4.5 7t2.5 12v121zM309 744h-97l64 151h127z" />
    <glyph glyph-name="cacute" unicode="&#x107;" horiz-adv-x="495" 
d="M310 252h135v-176q0 -35 -22.5 -57.5t-57.5 -22.5h-213q-35 0 -57 22.5t-22 57.5v522q0 36 22 58.5t57 22.5h213q35 0 57.5 -22.5t22.5 -58.5v-173h-135v128q0 11 -7 11h-86q-9 0 -9 -11v-431q0 -10 9 -10h86q2 0 4.5 7t2.5 12v121zM309 744h-97l64 151h127z" />
    <glyph glyph-name="Cdotaccent" unicode="&#x10a;" horiz-adv-x="495" 
d="M310 252h135v-176q0 -35 -22.5 -57.5t-57.5 -22.5h-213q-35 0 -57 22.5t-22 57.5v522q0 36 22 58.5t57 22.5h213q35 0 57.5 -22.5t22.5 -58.5v-173h-135v128q0 11 -7 11h-86q-9 0 -9 -11v-431q0 -10 9 -10h86q2 0 4.5 7t2.5 12v121zM198 767v126h127v-126h-127z" />
    <glyph glyph-name="cdotaccent" unicode="&#x10b;" horiz-adv-x="495" 
d="M310 252h135v-176q0 -35 -22.5 -57.5t-57.5 -22.5h-213q-35 0 -57 22.5t-22 57.5v522q0 36 22 58.5t57 22.5h213q35 0 57.5 -22.5t22.5 -58.5v-173h-135v128q0 11 -7 11h-86q-9 0 -9 -11v-431q0 -10 9 -10h86q2 0 4.5 7t2.5 12v121zM198 767v126h127v-126h-127z" />
    <glyph glyph-name="Ccaron" unicode="&#x10c;" horiz-adv-x="495" 
d="M310 252h135v-176q0 -35 -22.5 -57.5t-57.5 -22.5h-213q-35 0 -57 22.5t-22 57.5v522q0 36 22 58.5t57 22.5h213q35 0 57.5 -22.5t22.5 -58.5v-173h-135v128q0 11 -7 11h-86q-9 0 -9 -11v-431q0 -10 9 -10h86q2 0 4.5 7t2.5 12v121zM198 889l64 -74l64 74h112l-135 -151
h-82l-135 151h112z" />
    <glyph glyph-name="ccaron" unicode="&#x10d;" horiz-adv-x="495" 
d="M310 252h135v-176q0 -35 -22.5 -57.5t-57.5 -22.5h-213q-35 0 -57 22.5t-22 57.5v522q0 36 22 58.5t57 22.5h213q35 0 57.5 -22.5t22.5 -58.5v-173h-135v128q0 11 -7 11h-86q-9 0 -9 -11v-431q0 -10 9 -10h86q2 0 4.5 7t2.5 12v121zM198 889l64 -74l64 74h112l-135 -151
h-82l-135 151h112z" />
    <glyph glyph-name="Dcaron" unicode="&#x10e;" horiz-adv-x="532" 
d="M79 675h271q47 0 78 -31t31 -78v-456q0 -48 -31 -79t-78 -31h-271v675zM324 143v389q0 28 -28 28h-82v-445h82q13 0 20.5 8t7.5 20zM195 889l64 -74l64 74h112l-135 -151h-82l-135 151h112z" />
    <glyph glyph-name="dcaron" unicode="&#x10f;" horiz-adv-x="532" 
d="M79 675h271q47 0 78 -31t31 -78v-456q0 -48 -31 -79t-78 -31h-271v675zM324 143v389q0 28 -28 28h-82v-445h82q13 0 20.5 8t7.5 20zM195 889l64 -74l64 74h112l-135 -151h-82l-135 151h112z" />
    <glyph glyph-name="Dcroat" unicode="&#x110;" horiz-adv-x="526" 
d="M33 284v101h46v290h266q47 0 78 -31t31 -78v-456q0 -48 -31 -79t-78 -31h-266v284h-46zM320 143v389q0 28 -28 28h-78v-175h52v-101h-52v-169h78q13 0 20.5 8t7.5 20z" />
    <glyph glyph-name="dcroat" unicode="&#x111;" horiz-adv-x="526" 
d="M33 284v101h46v290h266q47 0 78 -31t31 -78v-456q0 -48 -31 -79t-78 -31h-266v284h-46zM320 143v389q0 28 -28 28h-78v-175h52v-101h-52v-169h78q13 0 20.5 8t7.5 20z" />
    <glyph glyph-name="Emacron" unicode="&#x112;" 
d="M79 0v675h319v-115h-184v-163h155v-113h-155v-169h184v-115h-319zM93 780v96h298v-96h-298z" />
    <glyph glyph-name="emacron" unicode="&#x113;" 
d="M79 0v675h319v-115h-184v-163h155v-113h-155v-169h184v-115h-319zM93 780v96h298v-96h-298z" />
    <glyph glyph-name="Ebreve" unicode="&#x114;" 
d="M79 0v675h319v-115h-184v-163h155v-113h-155v-169h184v-115h-319zM241 822q58 0 58 65h91q0 -142 -149 -142q-154 0 -154 142h96q0 -65 58 -65z" />
    <glyph glyph-name="ebreve" unicode="&#x115;" 
d="M79 0v675h319v-115h-184v-163h155v-113h-155v-169h184v-115h-319zM241 822q58 0 58 65h91q0 -142 -149 -142q-154 0 -154 142h96q0 -65 58 -65z" />
    <glyph glyph-name="Edotaccent" unicode="&#x116;" 
d="M79 0v675h319v-115h-184v-163h155v-113h-155v-169h184v-115h-319zM178 767v126h127v-126h-127z" />
    <glyph glyph-name="edotaccent" unicode="&#x117;" 
d="M79 0v675h319v-115h-184v-163h155v-113h-155v-169h184v-115h-319zM178 767v126h127v-126h-127z" />
    <glyph glyph-name="Eogonek" unicode="&#x118;" 
d="M79 0v675h319v-115h-184v-163h155v-113h-155v-169h184v-115l-81 -117h112v-88h-174q-37 0 -37 33v45q0 21 15 45l52 82h-206z" />
    <glyph glyph-name="eogonek" unicode="&#x119;" 
d="M79 0v675h319v-115h-184v-163h155v-113h-155v-169h184v-115l-81 -117h112v-88h-174q-37 0 -37 33v45q0 21 15 45l52 82h-206z" />
    <glyph glyph-name="Ecaron" unicode="&#x11a;" 
d="M79 0v675h319v-115h-184v-163h155v-113h-155v-169h184v-115h-319zM177 889l64 -74l64 74h112l-135 -151h-82l-135 151h112z" />
    <glyph glyph-name="ecaron" unicode="&#x11b;" 
d="M79 0v675h319v-115h-184v-163h155v-113h-155v-169h184v-115h-319zM177 889l64 -74l64 74h112l-135 -151h-82l-135 151h112z" />
    <glyph glyph-name="Gcircumflex" unicode="&#x11c;" horiz-adv-x="525" 
d="M261 300v113h221v-113h-41v-223q0 -35 -22.5 -57.5t-58.5 -22.5h-207q-36 0 -58 22.5t-22 57.5v521q0 36 22 58.5t58 22.5h289v-120h-226q-8 0 -8 -11v-421q0 -10 8 -10h93q9 0 9 10v173h-57zM267 817l-64 -74h-112l135 151h82l135 -151h-112z" />
    <glyph glyph-name="gcircumflex" unicode="&#x11d;" horiz-adv-x="525" 
d="M261 300v113h221v-113h-41v-223q0 -35 -22.5 -57.5t-58.5 -22.5h-207q-36 0 -58 22.5t-22 57.5v521q0 36 22 58.5t58 22.5h289v-120h-226q-8 0 -8 -11v-421q0 -10 8 -10h93q9 0 9 10v173h-57zM267 817l-64 -74h-112l135 151h82l135 -151h-112z" />
    <glyph glyph-name="Gbreve" unicode="&#x11e;" horiz-adv-x="525" 
d="M261 300v113h221v-113h-41v-223q0 -35 -22.5 -57.5t-58.5 -22.5h-207q-36 0 -58 22.5t-22 57.5v521q0 36 22 58.5t58 22.5h289v-120h-226q-8 0 -8 -11v-421q0 -10 8 -10h93q9 0 9 10v173h-57zM267 822q58 0 58 65h91q0 -142 -149 -142q-154 0 -154 142h96q0 -65 58 -65z
" />
    <glyph glyph-name="gbreve" unicode="&#x11f;" horiz-adv-x="525" 
d="M261 300v113h221v-113h-41v-223q0 -35 -22.5 -57.5t-58.5 -22.5h-207q-36 0 -58 22.5t-22 57.5v521q0 36 22 58.5t58 22.5h289v-120h-226q-8 0 -8 -11v-421q0 -10 8 -10h93q9 0 9 10v173h-57zM267 822q58 0 58 65h91q0 -142 -149 -142q-154 0 -154 142h96q0 -65 58 -65z
" />
    <glyph glyph-name="Gdotaccent" unicode="&#x120;" horiz-adv-x="525" 
d="M261 300v113h221v-113h-41v-223q0 -35 -22.5 -57.5t-58.5 -22.5h-207q-36 0 -58 22.5t-22 57.5v521q0 36 22 58.5t58 22.5h289v-120h-226q-8 0 -8 -11v-421q0 -10 8 -10h93q9 0 9 10v173h-57zM204 767v126h127v-126h-127z" />
    <glyph glyph-name="gdotaccent" unicode="&#x121;" horiz-adv-x="525" 
d="M261 300v113h221v-113h-41v-223q0 -35 -22.5 -57.5t-58.5 -22.5h-207q-36 0 -58 22.5t-22 57.5v521q0 36 22 58.5t58 22.5h289v-120h-226q-8 0 -8 -11v-421q0 -10 8 -10h93q9 0 9 10v173h-57zM204 767v126h127v-126h-127z" />
    <glyph glyph-name="Gcommaaccent" unicode="&#x122;" horiz-adv-x="525" 
d="M261 300v113h221v-113h-41v-223q0 -35 -22.5 -57.5t-58.5 -22.5h-207q-36 0 -58 22.5t-22 57.5v521q0 36 22 58.5t58 22.5h289v-120h-226q-8 0 -8 -11v-421q0 -10 8 -10h93q9 0 9 10v173h-57zM238 -204h-85l56 133h112z" />
    <glyph glyph-name="gcommaaccent" unicode="&#x123;" horiz-adv-x="525" 
d="M261 300v113h221v-113h-41v-223q0 -35 -22.5 -57.5t-58.5 -22.5h-207q-36 0 -58 22.5t-22 57.5v521q0 36 22 58.5t58 22.5h289v-120h-226q-8 0 -8 -11v-421q0 -10 8 -10h93q9 0 9 10v173h-57zM238 -204h-85l56 133h112z" />
    <glyph glyph-name="Hcircumflex" unicode="&#x124;" horiz-adv-x="545" 
d="M466 675v-675h-134v279h-119v-279h-134v675h134v-283h119v283h134zM270 817l-64 -74h-112l135 151h82l135 -151h-112z" />
    <glyph glyph-name="hcircumflex" unicode="&#x125;" horiz-adv-x="545" 
d="M466 675v-675h-134v279h-119v-279h-134v675h134v-283h119v283h134zM270 817l-64 -74h-112l135 151h82l135 -151h-112z" />
    <glyph glyph-name="Hbar" unicode="&#x126;" horiz-adv-x="545" 
d="M466 675v-94h60v-97h-60v-484h-134v273h-119v-273h-134v484h-61v97h61v94h134v-94h119v94h134zM213 484v-103h119v103h-119z" />
    <glyph glyph-name="hbar" unicode="&#x127;" horiz-adv-x="545" 
d="M466 675v-94h60v-97h-60v-484h-134v273h-119v-273h-134v484h-61v97h61v94h134v-94h119v94h134zM213 484v-103h119v103h-119z" />
    <glyph glyph-name="Itilde" unicode="&#x128;" horiz-adv-x="289" 
d="M210 675v-675h-131v675h131zM80 872q36 0 72 -23.5t49 -23.5q17 0 26.5 13t9.5 33h82q0 -63 -28.5 -96.5t-76.5 -33.5q-35 0 -72.5 23.5t-50.5 23.5q-35 0 -35 -46h-82q0 63 28.5 96.5t77.5 33.5z" />
    <glyph glyph-name="itilde" unicode="&#x129;" horiz-adv-x="289" 
d="M210 675v-675h-131v675h131zM80 872q36 0 72 -23.5t49 -23.5q17 0 26.5 13t9.5 33h82q0 -63 -28.5 -96.5t-76.5 -33.5q-35 0 -72.5 23.5t-50.5 23.5q-35 0 -35 -46h-82q0 63 28.5 96.5t77.5 33.5z" />
    <glyph glyph-name="Imacron" unicode="&#x12a;" horiz-adv-x="289" 
d="M210 675v-675h-131v675h131zM-3 780v96h298v-96h-298z" />
    <glyph glyph-name="imacron" unicode="&#x12b;" horiz-adv-x="289" 
d="M210 675v-675h-131v675h131zM-3 780v96h298v-96h-298z" />
    <glyph glyph-name="Ibreve" unicode="&#x12c;" horiz-adv-x="289" 
d="M210 675v-675h-131v675h131zM145 822q58 0 58 65h91q0 -142 -149 -142q-154 0 -154 142h96q0 -65 58 -65z" />
    <glyph glyph-name="ibreve" unicode="&#x12d;" horiz-adv-x="289" 
d="M210 675v-675h-131v675h131zM145 822q58 0 58 65h91q0 -142 -149 -142q-154 0 -154 142h96q0 -65 58 -65z" />
    <glyph glyph-name="Iogonek" unicode="&#x12e;" horiz-adv-x="289" 
d="M241 -205h-174q-37 0 -37 33v45q0 21 15 45l52 82h-18v675h131v-675l-81 -117h112v-88z" />
    <glyph glyph-name="iogonek" unicode="&#x12f;" horiz-adv-x="289" 
d="M241 -205h-174q-37 0 -37 33v45q0 21 15 45l52 82h-18v675h131v-675l-81 -117h112v-88z" />
    <glyph glyph-name="Idotaccent" unicode="&#x130;" horiz-adv-x="289" 
d="M210 675v-675h-131v675h131zM82 767v126h127v-126h-127z" />
    <glyph glyph-name="dotlessi" unicode="&#x131;" horiz-adv-x="326" 
d="M230 675v-675h-134v675h134z" />
    <glyph glyph-name="IJ" unicode="&#x132;" horiz-adv-x="548" 
d="M77 0v115h247q11 0 11 9v551h134v-598q0 -33 -22 -55t-54 -22h-316zM209 675v-439h-132v439h132z" />
    <glyph glyph-name="ij" unicode="&#x133;" horiz-adv-x="548" 
d="M77 0v115h247q11 0 11 9v551h134v-598q0 -33 -22 -55t-54 -22h-316zM209 675v-439h-132v439h132z" />
    <glyph glyph-name="Jcircumflex" unicode="&#x134;" horiz-adv-x="475" 
d="M52 323h131v-202q0 -9 9 -9h59q11 0 11 9v554h134v-601q0 -33 -22 -55t-54 -22h-191q-31 0 -54 22.5t-23 54.5v249zM324 817l-64 -74h-112l135 151h82l135 -151h-112z" />
    <glyph glyph-name="jcircumflex" unicode="&#x135;" horiz-adv-x="475" 
d="M52 323h131v-202q0 -9 9 -9h59q11 0 11 9v554h134v-601q0 -33 -22 -55t-54 -22h-191q-31 0 -54 22.5t-23 54.5v249zM324 817l-64 -74h-112l135 151h82l135 -151h-112z" />
    <glyph glyph-name="Kcommaaccent" unicode="&#x136;" horiz-adv-x="517" 
d="M497 0h-143l-111 259l-30 -45v-214h-134v675h134v-282l136 282h142l-157 -310zM245 -204h-85l56 133h112z" />
    <glyph glyph-name="kcommaaccent" unicode="&#x137;" horiz-adv-x="517" 
d="M497 0h-143l-111 259l-30 -45v-214h-134v675h134v-282l136 282h142l-157 -310zM245 -204h-85l56 133h112z" />
    <glyph glyph-name="Lacute" unicode="&#x139;" horiz-adv-x="406" 
d="M79 0v675h134v-558h161v-117h-295zM192 744h-97l64 151h127z" />
    <glyph glyph-name="lacute" unicode="&#x13a;" horiz-adv-x="406" 
d="M79 0v675h134v-558h161v-117h-295zM192 744h-97l64 151h127z" />
    <glyph glyph-name="Lcommaaccent" unicode="&#x13b;" horiz-adv-x="406" 
d="M79 0v675h134v-558h161v-117h-295zM163 -204h-85l56 133h112z" />
    <glyph glyph-name="lcommaaccent" unicode="&#x13c;" horiz-adv-x="406" 
d="M79 0v675h134v-558h161v-117h-295zM163 -204h-85l56 133h112z" />
    <glyph glyph-name="Lcaron" unicode="&#x13d;" horiz-adv-x="406" 
d="M79 0v675h134v-558h161v-117h-295zM81 889l64 -74l64 74h112l-135 -151h-82l-135 151h112z" />
    <glyph glyph-name="lcaron" unicode="&#x13e;" horiz-adv-x="406" 
d="M79 0v675h134v-558h161v-117h-295zM81 889l64 -74l64 74h112l-135 -151h-82l-135 151h112z" />
    <glyph glyph-name="Ldot" unicode="&#x13f;" horiz-adv-x="399" 
d="M88 767v126h127v-126h-127zM79 0v675h134v-558h161v-117h-295z" />
    <glyph glyph-name="Lslash" unicode="&#x141;" horiz-adv-x="399" 
d="M11 146l-49 60l117 98v371h134v-259l120 100l50 -61l-170 -141v-197h161v-117h-295v202z" />
    <glyph glyph-name="lslash" unicode="&#x142;" horiz-adv-x="399" 
d="M11 146l-49 60l117 98v371h134v-259l120 100l50 -61l-170 -141v-197h161v-117h-295v202z" />
    <glyph glyph-name="Nacute" unicode="&#x143;" horiz-adv-x="550" 
d="M352 0l-154 374v-374h-119v675h118l155 -390v390h119v-675h-119zM325 744h-97l64 151h127z" />
    <glyph glyph-name="nacute" unicode="&#x144;" horiz-adv-x="550" 
d="M352 0l-154 374v-374h-119v675h118l155 -390v390h119v-675h-119zM325 744h-97l64 151h127z" />
    <glyph glyph-name="Ncommaaccent" unicode="&#x145;" horiz-adv-x="550" 
d="M352 0l-154 374v-374h-119v675h118l155 -390v390h119v-675h-119zM253 -204h-85l56 133h112z" />
    <glyph glyph-name="ncommaaccent" unicode="&#x146;" horiz-adv-x="550" 
d="M352 0l-154 374v-374h-119v675h118l155 -390v390h119v-675h-119zM253 -204h-85l56 133h112z" />
    <glyph glyph-name="Ncaron" unicode="&#x147;" horiz-adv-x="550" 
d="M352 0l-154 374v-374h-119v675h118l155 -390v390h119v-675h-119zM214 889l64 -74l64 74h112l-135 -151h-82l-135 151h112z" />
    <glyph glyph-name="ncaron" unicode="&#x148;" horiz-adv-x="550" 
d="M352 0l-154 374v-374h-119v675h118l155 -390v390h119v-675h-119zM214 889l64 -74l64 74h112l-135 -151h-82l-135 151h112z" />
    <glyph glyph-name="Eng" unicode="&#x14a;" horiz-adv-x="550" 
d="M238 -188v115h103q11 0 11 9v137l-154 313v-386h-119v675h118l155 -320v320h119v-786q0 -33 -22 -55t-54 -22h-157z" />
    <glyph glyph-name="eng" unicode="&#x14b;" horiz-adv-x="550" 
d="M238 -188v115h103q11 0 11 9v137l-154 313v-386h-119v675h118l155 -320v320h119v-786q0 -33 -22 -55t-54 -22h-157z" />
    <glyph glyph-name="Omacron" unicode="&#x14c;" horiz-adv-x="528" 
d="M146 679h236q32 0 52.5 -20.5t20.5 -52.5v-536q0 -32 -20.5 -52.5t-52.5 -20.5h-236q-33 0 -53 20.5t-20 52.5v536q0 32 20 52.5t53 20.5zM320 121v434q0 11 -8 11h-97q-7 0 -7 -11v-434q0 -9 7 -9h97q8 0 8 9zM116 780v96h298v-96h-298z" />
    <glyph glyph-name="omacron" unicode="&#x14d;" horiz-adv-x="528" 
d="M146 679h236q32 0 52.5 -20.5t20.5 -52.5v-536q0 -32 -20.5 -52.5t-52.5 -20.5h-236q-33 0 -53 20.5t-20 52.5v536q0 32 20 52.5t53 20.5zM320 121v434q0 11 -8 11h-97q-7 0 -7 -11v-434q0 -9 7 -9h97q8 0 8 9zM116 780v96h298v-96h-298z" />
    <glyph glyph-name="Obreve" unicode="&#x14e;" horiz-adv-x="528" 
d="M146 679h236q32 0 52.5 -20.5t20.5 -52.5v-536q0 -32 -20.5 -52.5t-52.5 -20.5h-236q-33 0 -53 20.5t-20 52.5v536q0 32 20 52.5t53 20.5zM320 121v434q0 11 -8 11h-97q-7 0 -7 -11v-434q0 -9 7 -9h97q8 0 8 9zM264 822q58 0 58 65h91q0 -142 -149 -142q-154 0 -154 142
h96q0 -65 58 -65z" />
    <glyph glyph-name="obreve" unicode="&#x14f;" horiz-adv-x="528" 
d="M146 679h236q32 0 52.5 -20.5t20.5 -52.5v-536q0 -32 -20.5 -52.5t-52.5 -20.5h-236q-33 0 -53 20.5t-20 52.5v536q0 32 20 52.5t53 20.5zM320 121v434q0 11 -8 11h-97q-7 0 -7 -11v-434q0 -9 7 -9h97q8 0 8 9zM264 822q58 0 58 65h91q0 -142 -149 -142q-154 0 -154 142
h96q0 -65 58 -65z" />
    <glyph glyph-name="Ohungarumlaut" unicode="&#x150;" horiz-adv-x="528" 
d="M146 679h236q32 0 52.5 -20.5t20.5 -52.5v-536q0 -32 -20.5 -52.5t-52.5 -20.5h-236q-33 0 -53 20.5t-20 52.5v536q0 32 20 52.5t53 20.5zM320 121v434q0 11 -8 11h-97q-7 0 -7 -11v-434q0 -9 7 -9h97q8 0 8 9zM208 744h-97l64 151h127zM391 744h-97l64 151h127z" />
    <glyph glyph-name="ohungarumlaut" unicode="&#x151;" horiz-adv-x="528" 
d="M146 679h236q32 0 52.5 -20.5t20.5 -52.5v-536q0 -32 -20.5 -52.5t-52.5 -20.5h-236q-33 0 -53 20.5t-20 52.5v536q0 32 20 52.5t53 20.5zM320 121v434q0 11 -8 11h-97q-7 0 -7 -11v-434q0 -9 7 -9h97q8 0 8 9zM208 744h-97l64 151h127zM391 744h-97l64 151h127z" />
    <glyph glyph-name="OE" unicode="&#x152;" horiz-adv-x="701" 
d="M215 115h111v447h-111q-7 0 -7 -11v-427q0 -9 7 -9zM146 0q-33 0 -53 20.5t-20 52.5v529q0 32 20 52.5t53 20.5h503v-115h-188v-163h159v-112h-159v-170h188v-115h-503z" />
    <glyph glyph-name="oe" unicode="&#x153;" horiz-adv-x="701" 
d="M215 115h111v447h-111q-7 0 -7 -11v-427q0 -9 7 -9zM146 0q-33 0 -53 20.5t-20 52.5v529q0 32 20 52.5t53 20.5h503v-115h-188v-163h159v-112h-159v-170h188v-115h-503z" />
    <glyph glyph-name="Racute" unicode="&#x154;" horiz-adv-x="522" 
d="M79 675h299q35 0 57 -22.5t22 -57.5v-294q0 -31 -16.5 -52t-44.5 -26l63 -223h-133l-61 221h-51v-221h-135v675zM324 339v211q0 10 -8 10h-102v-230h102q8 0 8 9zM311 744h-97l64 151h127z" />
    <glyph glyph-name="racute" unicode="&#x155;" horiz-adv-x="522" 
d="M79 675h299q35 0 57 -22.5t22 -57.5v-294q0 -31 -16.5 -52t-44.5 -26l63 -223h-133l-61 221h-51v-221h-135v675zM324 339v211q0 10 -8 10h-102v-230h102q8 0 8 9zM311 744h-97l64 151h127z" />
    <glyph glyph-name="Rcommaaccent" unicode="&#x156;" horiz-adv-x="522" 
d="M79 675h299q35 0 57 -22.5t22 -57.5v-294q0 -31 -16.5 -52t-44.5 -26l63 -223h-133l-61 221h-51v-221h-135v675zM324 339v211q0 10 -8 10h-102v-230h102q8 0 8 9zM245 -204h-85l56 133h112z" />
    <glyph glyph-name="rcommaaccent" unicode="&#x157;" horiz-adv-x="522" 
d="M79 675h299q35 0 57 -22.5t22 -57.5v-294q0 -31 -16.5 -52t-44.5 -26l63 -223h-133l-61 221h-51v-221h-135v675zM324 339v211q0 10 -8 10h-102v-230h102q8 0 8 9zM245 -204h-85l56 133h112z" />
    <glyph glyph-name="Rcaron" unicode="&#x158;" horiz-adv-x="522" 
d="M79 675h299q35 0 57 -22.5t22 -57.5v-294q0 -31 -16.5 -52t-44.5 -26l63 -223h-133l-61 221h-51v-221h-135v675zM200 889l64 -74l64 74h112l-135 -151h-82l-135 151h112zM324 339v211q0 10 -8 10h-102v-230h102q8 0 8 9z" />
    <glyph glyph-name="rcaron" unicode="&#x159;" horiz-adv-x="522" 
d="M79 675h299q35 0 57 -22.5t22 -57.5v-294q0 -31 -16.5 -52t-44.5 -26l63 -223h-133l-61 221h-51v-221h-135v675zM200 889l64 -74l64 74h112l-135 -151h-82l-135 151h112zM324 339v211q0 10 -8 10h-102v-230h102q8 0 8 9z" />
    <glyph glyph-name="Sacute" unicode="&#x15a;" horiz-adv-x="430" 
d="M57 0v118h176q9 0 9 9v142q0 9 -9 9h-104q-31 0 -51.5 20.5t-20.5 52.5v251q0 32 20 52.5t52 20.5h240v-115h-169q-9 0 -9 -11v-140q0 -9 9 -9h104q32 0 52.5 -20.5t20.5 -52.5v-254q0 -32 -20.5 -52.5t-52.5 -20.5h-247zM265 744h-97l64 151h127z" />
    <glyph glyph-name="sacute" unicode="&#x15b;" horiz-adv-x="430" 
d="M57 0v118h176q9 0 9 9v142q0 9 -9 9h-104q-31 0 -51.5 20.5t-20.5 52.5v251q0 32 20 52.5t52 20.5h240v-115h-169q-9 0 -9 -11v-140q0 -9 9 -9h104q32 0 52.5 -20.5t20.5 -52.5v-254q0 -32 -20.5 -52.5t-52.5 -20.5h-247zM265 744h-97l64 151h127z" />
    <glyph glyph-name="Scircumflex" unicode="&#x15c;" horiz-adv-x="430" 
d="M57 0v118h176q9 0 9 9v142q0 9 -9 9h-104q-31 0 -51.5 20.5t-20.5 52.5v251q0 32 20 52.5t52 20.5h240v-115h-169q-9 0 -9 -11v-140q0 -9 9 -9h104q32 0 52.5 -20.5t20.5 -52.5v-254q0 -32 -20.5 -52.5t-52.5 -20.5h-247zM217 817l-64 -74h-112l135 151h82l135 -151h-112
z" />
    <glyph glyph-name="scircumflex" unicode="&#x15d;" horiz-adv-x="430" 
d="M57 0v118h176q9 0 9 9v142q0 9 -9 9h-104q-31 0 -51.5 20.5t-20.5 52.5v251q0 32 20 52.5t52 20.5h240v-115h-169q-9 0 -9 -11v-140q0 -9 9 -9h104q32 0 52.5 -20.5t20.5 -52.5v-254q0 -32 -20.5 -52.5t-52.5 -20.5h-247zM217 817l-64 -74h-112l135 151h82l135 -151h-112
z" />
    <glyph glyph-name="Scedilla" unicode="&#x15e;" horiz-adv-x="430" 
d="M57 0v118h176q9 0 9 9v142q0 9 -9 9h-104q-31 0 -51.5 20.5t-20.5 52.5v251q0 32 20 52.5t52 20.5h240v-115h-169q-9 0 -9 -11v-140q0 -9 9 -9h104q32 0 52.5 -20.5t20.5 -52.5v-254q0 -32 -20.5 -52.5t-52.5 -20.5h-92l-11 -52h119q15 0 23.5 -9.5t5.5 -25.5l-20 -124
q-2 -16 -13.5 -26.5t-27.5 -10.5h-188l13 74h141q4 0 5 4l7 43q0 4 -3 4h-143l20 123h-83z" />
    <glyph glyph-name="scedilla" unicode="&#x15f;" horiz-adv-x="430" 
d="M57 0v118h176q9 0 9 9v142q0 9 -9 9h-104q-31 0 -51.5 20.5t-20.5 52.5v251q0 32 20 52.5t52 20.5h240v-115h-169q-9 0 -9 -11v-140q0 -9 9 -9h104q32 0 52.5 -20.5t20.5 -52.5v-254q0 -32 -20.5 -52.5t-52.5 -20.5h-92l-11 -52h119q15 0 23.5 -9.5t5.5 -25.5l-20 -124
q-2 -16 -13.5 -26.5t-27.5 -10.5h-188l13 74h141q4 0 5 4l7 43q0 4 -3 4h-143l20 123h-83z" />
    <glyph glyph-name="Scaron" unicode="&#x160;" horiz-adv-x="430" 
d="M57 0v118h176q9 0 9 9v142q0 9 -9 9h-104q-31 0 -51.5 20.5t-20.5 52.5v251q0 32 20 52.5t52 20.5h240v-115h-169q-9 0 -9 -11v-140q0 -9 9 -9h104q32 0 52.5 -20.5t20.5 -52.5v-254q0 -32 -20.5 -52.5t-52.5 -20.5h-247zM154 889l64 -74l64 74h112l-135 -151h-82
l-135 151h112z" />
    <glyph glyph-name="scaron" unicode="&#x161;" horiz-adv-x="430" 
d="M57 0v118h176q9 0 9 9v142q0 9 -9 9h-104q-31 0 -51.5 20.5t-20.5 52.5v251q0 32 20 52.5t52 20.5h240v-115h-169q-9 0 -9 -11v-140q0 -9 9 -9h104q32 0 52.5 -20.5t20.5 -52.5v-254q0 -32 -20.5 -52.5t-52.5 -20.5h-247zM154 889l64 -74l64 74h112l-135 -151h-82
l-135 151h112z" />
    <glyph glyph-name="Tcommaaccent" unicode="&#x162;" horiz-adv-x="399" 
d="M22 675h355v-115h-110v-560h-135v560h-110v115zM175 -204h-85l56 133h112z" />
    <glyph glyph-name="Tcommaaccent" unicode="&#x21a;" horiz-adv-x="399" 
d="M22 675h355v-115h-110v-560h-135v560h-110v115zM175 -204h-85l56 133h112z" />
    <glyph glyph-name="tcommaaccent" unicode="&#x163;" horiz-adv-x="399" 
d="M22 675h355v-115h-110v-560h-135v560h-110v115zM175 -204h-85l56 133h112z" />
    <glyph glyph-name="tcommaaccent" unicode="&#x21b;" horiz-adv-x="399" 
d="M22 675h355v-115h-110v-560h-135v560h-110v115zM175 -204h-85l56 133h112z" />
    <glyph glyph-name="Tcaron" unicode="&#x164;" horiz-adv-x="399" 
d="M22 675h355v-115h-110v-560h-135v560h-110v115zM135 889l64 -74l64 74h112l-135 -151h-82l-135 151h112z" />
    <glyph glyph-name="tcaron" unicode="&#x165;" horiz-adv-x="399" 
d="M22 675h355v-115h-110v-560h-135v560h-110v115zM135 889l64 -74l64 74h112l-135 -151h-82l-135 151h112z" />
    <glyph glyph-name="Tbar" unicode="&#x166;" horiz-adv-x="485" 
d="M79 675h355v-115h-110v-195h95v-122h-95v-243h-135v243h-95v122h95v195h-110v115z" />
    <glyph glyph-name="Utilde" unicode="&#x168;" horiz-adv-x="534" 
d="M79 675h135v-553q0 -3 2.5 -6t4.5 -3h90q8 0 8 9v553h136v-595q0 -35 -23 -57.5t-58 -22.5h-215q-35 0 -57.5 22.5t-22.5 57.5v595zM201 872q36 0 72 -23.5t49 -23.5q17 0 26.5 13t9.5 33h82q0 -63 -28.5 -96.5t-76.5 -33.5q-35 0 -72.5 23.5t-50.5 23.5q-35 0 -35 -46
h-82q0 63 28.5 96.5t77.5 33.5z" />
    <glyph glyph-name="utilde" unicode="&#x169;" horiz-adv-x="534" 
d="M79 675h135v-553q0 -3 2.5 -6t4.5 -3h90q8 0 8 9v553h136v-595q0 -35 -23 -57.5t-58 -22.5h-215q-35 0 -57.5 22.5t-22.5 57.5v595zM201 872q36 0 72 -23.5t49 -23.5q17 0 26.5 13t9.5 33h82q0 -63 -28.5 -96.5t-76.5 -33.5q-35 0 -72.5 23.5t-50.5 23.5q-35 0 -35 -46
h-82q0 63 28.5 96.5t77.5 33.5z" />
    <glyph glyph-name="Umacron" unicode="&#x16a;" horiz-adv-x="534" 
d="M79 675h135v-553q0 -3 2.5 -6t4.5 -3h90q8 0 8 9v553h136v-595q0 -35 -23 -57.5t-58 -22.5h-215q-35 0 -57.5 22.5t-22.5 57.5v595zM118 780v96h298v-96h-298z" />
    <glyph glyph-name="umacron" unicode="&#x16b;" horiz-adv-x="534" 
d="M79 675h135v-553q0 -3 2.5 -6t4.5 -3h90q8 0 8 9v553h136v-595q0 -35 -23 -57.5t-58 -22.5h-215q-35 0 -57.5 22.5t-22.5 57.5v595zM118 780v96h298v-96h-298z" />
    <glyph glyph-name="Ubreve" unicode="&#x16c;" horiz-adv-x="534" 
d="M79 675h135v-553q0 -3 2.5 -6t4.5 -3h90q8 0 8 9v553h136v-595q0 -35 -23 -57.5t-58 -22.5h-215q-35 0 -57.5 22.5t-22.5 57.5v595zM266 822q58 0 58 65h91q0 -142 -149 -142q-154 0 -154 142h96q0 -65 58 -65z" />
    <glyph glyph-name="ubreve" unicode="&#x16d;" horiz-adv-x="534" 
d="M79 675h135v-553q0 -3 2.5 -6t4.5 -3h90q8 0 8 9v553h136v-595q0 -35 -23 -57.5t-58 -22.5h-215q-35 0 -57.5 22.5t-22.5 57.5v595zM266 822q58 0 58 65h91q0 -142 -149 -142q-154 0 -154 142h96q0 -65 58 -65z" />
    <glyph glyph-name="Uring" unicode="&#x16e;" horiz-adv-x="534" 
d="M79 675h135v-553q0 -3 2.5 -6t4.5 -3h90q8 0 8 9v553h136v-595q0 -35 -23 -57.5t-58 -22.5h-215q-35 0 -57.5 22.5t-22.5 57.5v595zM374 840q0 -43 -31 -73.5t-77 -30.5q-42 0 -74 31t-32 73q0 43 32 73.5t74 30.5q46 0 77 -30t31 -74zM223 840q0 -20 11.5 -31.5
t31.5 -11.5t33 12t13 31q0 46 -46 46q-43 0 -43 -46z" />
    <glyph glyph-name="uring" unicode="&#x16f;" horiz-adv-x="534" 
d="M79 675h135v-553q0 -3 2.5 -6t4.5 -3h90q8 0 8 9v553h136v-595q0 -35 -23 -57.5t-58 -22.5h-215q-35 0 -57.5 22.5t-22.5 57.5v595zM374 840q0 -43 -31 -73.5t-77 -30.5q-42 0 -74 31t-32 73q0 43 32 73.5t74 30.5q46 0 77 -30t31 -74zM223 840q0 -20 11.5 -31.5
t31.5 -11.5t33 12t13 31q0 46 -46 46q-43 0 -43 -46z" />
    <glyph glyph-name="Uhungarumlaut" unicode="&#x170;" horiz-adv-x="534" 
d="M79 675h135v-553q0 -3 2.5 -6t4.5 -3h90q8 0 8 9v553h136v-595q0 -35 -23 -57.5t-58 -22.5h-215q-35 0 -57.5 22.5t-22.5 57.5v595zM210 744h-97l64 151h127zM393 744h-97l64 151h127z" />
    <glyph glyph-name="uhungarumlaut" unicode="&#x171;" horiz-adv-x="534" 
d="M79 675h135v-553q0 -3 2.5 -6t4.5 -3h90q8 0 8 9v553h136v-595q0 -35 -23 -57.5t-58 -22.5h-215q-35 0 -57.5 22.5t-22.5 57.5v595zM210 744h-97l64 151h127zM393 744h-97l64 151h127z" />
    <glyph glyph-name="Uogonek" unicode="&#x172;" horiz-adv-x="534" 
d="M356 -205h-174q-37 0 -37 33v45q0 21 15 45l52 82h-53q-35 0 -57.5 22.5t-22.5 57.5v595h135v-553q0 -3 2.5 -6t4.5 -3h90q8 0 8 9v553h136v-595q0 -35 -23 -57.5t-58 -22.5h-49l-81 -117h112v-88z" />
    <glyph glyph-name="uogonek" unicode="&#x173;" horiz-adv-x="534" 
d="M356 -205h-174q-37 0 -37 33v45q0 21 15 45l52 82h-53q-35 0 -57.5 22.5t-22.5 57.5v595h135v-553q0 -3 2.5 -6t4.5 -3h90q8 0 8 9v553h136v-595q0 -35 -23 -57.5t-58 -22.5h-49l-81 -117h112v-88z" />
    <glyph glyph-name="Wcircumflex" unicode="&#x174;" horiz-adv-x="657" 
d="M506 675h120l-102 -675h-115l-79 422l-81 -422h-115l-103 675h130l47 -432l68 432h112l68 -428zM329 817l-64 -74h-112l135 151h82l135 -151h-112z" />
    <glyph glyph-name="wcircumflex" unicode="&#x175;" horiz-adv-x="657" 
d="M506 675h120l-102 -675h-115l-79 422l-81 -422h-115l-103 675h130l47 -432l68 432h112l68 -428zM329 817l-64 -74h-112l135 151h82l135 -151h-112z" />
    <glyph glyph-name="Ycircumflex" unicode="&#x176;" horiz-adv-x="492" 
d="M313 0h-134v204h-43q-35 0 -57.5 22.5t-22.5 57.5v391h135v-342q0 -10 9 -10h96q5 0 5 10v342h135v-391q0 -35 -23 -57.5t-58 -22.5h-42v-204zM246 817l-64 -74h-112l135 151h82l135 -151h-112z" />
    <glyph glyph-name="ycircumflex" unicode="&#x177;" horiz-adv-x="492" 
d="M313 0h-134v204h-43q-35 0 -57.5 22.5t-22.5 57.5v391h135v-342q0 -10 9 -10h96q5 0 5 10v342h135v-391q0 -35 -23 -57.5t-58 -22.5h-42v-204zM246 817l-64 -74h-112l135 151h82l135 -151h-112z" />
    <glyph glyph-name="Ydieresis" unicode="&#x178;" horiz-adv-x="492" 
d="M313 0h-134v204h-43q-35 0 -57.5 22.5t-22.5 57.5v391h135v-342q0 -10 9 -10h96q5 0 5 10v342h135v-391q0 -35 -23 -57.5t-58 -22.5h-42v-204zM285 768v119h123v-119h-123zM90 768v119h123v-119h-123z" />
    <glyph glyph-name="Zacute" unicode="&#x179;" horiz-adv-x="425" 
d="M39 106l194 456h-183v113h329v-106l-195 -456h203v-113h-348v106zM254 744h-97l64 151h127z" />
    <glyph glyph-name="zacute" unicode="&#x17a;" horiz-adv-x="425" 
d="M39 106l194 456h-183v113h329v-106l-195 -456h203v-113h-348v106zM254 744h-97l64 151h127z" />
    <glyph glyph-name="Zdotaccent" unicode="&#x17b;" horiz-adv-x="425" 
d="M39 106l194 456h-183v113h329v-106l-195 -456h203v-113h-348v106zM143 767v126h127v-126h-127z" />
    <glyph glyph-name="zdotaccent" unicode="&#x17c;" horiz-adv-x="425" 
d="M39 106l194 456h-183v113h329v-106l-195 -456h203v-113h-348v106zM143 767v126h127v-126h-127z" />
    <glyph glyph-name="Zcaron" unicode="&#x17d;" horiz-adv-x="425" 
d="M39 106l194 456h-183v113h329v-106l-195 -456h203v-113h-348v106zM143 889l64 -74l64 74h112l-135 -151h-82l-135 151h112z" />
    <glyph glyph-name="zcaron" unicode="&#x17e;" horiz-adv-x="425" 
d="M39 106l194 456h-183v113h329v-106l-195 -456h203v-113h-348v106zM143 889l64 -74l64 74h112l-135 -151h-82l-135 151h112z" />
    <glyph glyph-name="Ucaron" unicode="&#x1d3;" horiz-adv-x="534" 
d="M79 675h135v-553q0 -3 2.5 -6t4.5 -3h90q8 0 8 9v553h136v-595q0 -35 -23 -57.5t-58 -22.5h-215q-35 0 -57.5 22.5t-22.5 57.5v595zM203 889l64 -74l64 74h112l-135 -151h-82l-135 151h112z" />
    <glyph glyph-name="ucaron" unicode="&#x1d4;" horiz-adv-x="534" 
d="M79 675h135v-553q0 -3 2.5 -6t4.5 -3h90q8 0 8 9v553h136v-595q0 -35 -23 -57.5t-58 -22.5h-215q-35 0 -57.5 22.5t-22.5 57.5v595zM203 889l64 -74l64 74h112l-135 -151h-82l-135 151h112z" />
    <glyph glyph-name="AEmacron" unicode="&#x1e2;" horiz-adv-x="709" 
d="M658 0h-334v186h-117v-186h-134v602q0 32 20 52.5t52 20.5h513v-115h-199v-163h170v-112h-170v-170h199v-115zM207 298h117v264h-100q-17 0 -17 -16v-248zM226 780v96h298v-96h-298z" />
    <glyph glyph-name="aemacron" unicode="&#x1e3;" horiz-adv-x="709" 
d="M658 0h-334v186h-117v-186h-134v602q0 32 20 52.5t52 20.5h513v-115h-199v-163h170v-112h-170v-170h199v-115zM207 298h117v264h-100q-17 0 -17 -16v-248zM226 780v96h298v-96h-298z" />
    <glyph glyph-name="AEacute" unicode="&#x1fc;" horiz-adv-x="709" 
d="M658 0h-334v186h-117v-186h-134v602q0 32 20 52.5t52 20.5h513v-115h-199v-163h170v-112h-170v-170h199v-115zM207 298h117v264h-100q-17 0 -17 -16v-248zM421 744h-97l64 151h127z" />
    <glyph glyph-name="aeacute" unicode="&#x1fd;" horiz-adv-x="709" 
d="M658 0h-334v186h-117v-186h-134v602q0 32 20 52.5t52 20.5h513v-115h-199v-163h170v-112h-170v-170h199v-115zM207 298h117v264h-100q-17 0 -17 -16v-248zM421 744h-97l64 151h127z" />
    <glyph glyph-name="Oslashacute" unicode="&#x1fe;" horiz-adv-x="528" 
d="M106 -81l30 80q-27 5 -45 24t-18 47v536q0 32 20 52.5t53 20.5h190l27 75h53l-29 -75q30 -2 49 -22t19 -51v-536q0 -32 -20.5 -52.5t-52.5 -20.5h-192l-30 -78h-54zM333 111l12 453v2l-117 -464h97q8 0 8 9zM194 564l-11 -436l112 447h-94q-7 0 -7 -11zM310 744h-97
l64 151h127z" />
    <glyph glyph-name="oslashacute" unicode="&#x1ff;" horiz-adv-x="528" 
d="M106 -81l30 80q-27 5 -45 24t-18 47v536q0 32 20 52.5t53 20.5h190l27 75h53l-29 -75q30 -2 49 -22t19 -51v-536q0 -32 -20.5 -52.5t-52.5 -20.5h-192l-30 -78h-54zM333 111l12 453v2l-117 -464h97q8 0 8 9zM194 564l-11 -436l112 447h-94q-7 0 -7 -11zM310 744h-97
l64 151h127z" />
    <glyph glyph-name="Scommaaccent" unicode="&#x218;" horiz-adv-x="430" 
d="M57 0v118h176q9 0 9 9v142q0 9 -9 9h-104q-31 0 -51.5 20.5t-20.5 52.5v251q0 32 20 52.5t52 20.5h240v-115h-169q-9 0 -9 -11v-140q0 -9 9 -9h104q32 0 52.5 -20.5t20.5 -52.5v-254q0 -32 -20.5 -52.5t-52.5 -20.5h-247zM182 -204h-85l56 133h112z" />
    <glyph glyph-name="scommaaccent" unicode="&#x219;" horiz-adv-x="430" 
d="M57 0v118h176q9 0 9 9v142q0 9 -9 9h-104q-31 0 -51.5 20.5t-20.5 52.5v251q0 32 20 52.5t52 20.5h240v-115h-169q-9 0 -9 -11v-140q0 -9 9 -9h104q32 0 52.5 -20.5t20.5 -52.5v-254q0 -32 -20.5 -52.5t-52.5 -20.5h-247zM182 -204h-85l56 133h112z" />
    <glyph glyph-name="Ymacron" unicode="&#x232;" horiz-adv-x="492" 
d="M313 0h-134v204h-43q-35 0 -57.5 22.5t-22.5 57.5v391h135v-342q0 -10 9 -10h96q5 0 5 10v342h135v-391q0 -35 -23 -57.5t-58 -22.5h-42v-204zM98 780v96h298v-96h-298z" />
    <glyph glyph-name="ymacron" unicode="&#x233;" horiz-adv-x="492" 
d="M313 0h-134v204h-43q-35 0 -57.5 22.5t-22.5 57.5v391h135v-342q0 -10 9 -10h96q5 0 5 10v342h135v-391q0 -35 -23 -57.5t-58 -22.5h-42v-204zM98 780v96h298v-96h-298z" />
    <glyph glyph-name="Bstroke" unicode="&#x243;" horiz-adv-x="485" 
d="M363 60h-68v-108h-97v108h-119v572h119v101h97v-101h67q32 0 51.5 -19t19.5 -50v-134q0 -70 -73 -83q34 -7 53.5 -28t19.5 -52v-137q0 -31 -19 -50t-51 -19zM309 175v111q0 14 -13 14h-92v-138h92q13 0 13 13zM309 412v102q0 13 -13 13h-92v-129h92q13 0 13 14z" />
    <glyph glyph-name="circumflex" unicode="&#x2c6;" horiz-adv-x="349" 
d="M176 817l-64 -74h-112l135 151h82l135 -151h-112z" />
    <glyph glyph-name="caron" unicode="&#x2c7;" horiz-adv-x="313" 
d="M112 889l64 -74l64 74h112l-135 -151h-82l-135 151h112z" />
    <glyph glyph-name="breve" unicode="&#x2d8;" horiz-adv-x="330" 
d="M154 822q58 0 58 65h91q0 -142 -149 -142q-154 0 -154 142h96q0 -65 58 -65z" />
    <glyph glyph-name="ring" unicode="&#x2da;" horiz-adv-x="233" 
d="M214 840q0 -43 -31 -73.5t-77 -30.5q-42 0 -74 31t-32 73q0 43 32 73.5t74 30.5q46 0 77 -30t31 -74zM63 840q0 -20 11.5 -31.5t31.5 -11.5t33 12t13 31q0 46 -46 46q-43 0 -43 -46z" />
    <glyph glyph-name="ogonek" unicode="&#x2db;" horiz-adv-x="247" 
d="M211 -205h-174q-37 0 -37 33v45q0 21 15 45l77 122l88 -26v-14l-81 -117h112v-88z" />
    <glyph glyph-name="tilde" unicode="&#x2dc;" horiz-adv-x="347" 
d="M106 872q36 0 72 -23.5t49 -23.5q17 0 26.5 13t9.5 33h82q0 -63 -28.5 -96.5t-76.5 -33.5q-35 0 -72.5 23.5t-50.5 23.5q-35 0 -35 -46h-82q0 63 28.5 96.5t77.5 33.5z" />
    <glyph glyph-name="hungarumlaut" unicode="&#x2dd;" horiz-adv-x="390" 
d="M97 744h-97l64 151h127zM304 744h-97l64 151h127z" />
    <glyph glyph-name="gravecomb" unicode="&#x300;" horiz-adv-x="191" 
d="M95 744l-95 151h128l63 -151h-96z" />
    <glyph glyph-name="acutecomb" unicode="&#x301;" horiz-adv-x="191" 
d="M97 744h-97l64 151h127z" />
    <glyph glyph-name="circumflexcomb" unicode="&#x302;" horiz-adv-x="352" 
d="M176 817l-64 -74h-112l135 151h82l135 -151h-112z" />
    <glyph glyph-name="tildecomb" unicode="&#x303;" horiz-adv-x="345" 
d="M106 872q36 0 72 -23.5t49 -23.5q17 0 26.5 13t9.5 33h82q0 -63 -28.5 -96.5t-76.5 -33.5q-35 0 -72.5 23.5t-50.5 23.5q-35 0 -35 -46h-82q0 63 28.5 96.5t77.5 33.5z" />
    <glyph glyph-name="macroncomb" unicode="&#x304;" horiz-adv-x="298" 
d="M0 780v96h298v-96h-298z" />
    <glyph glyph-name="brevecomb" unicode="&#x306;" horiz-adv-x="303" 
d="M154 822q58 0 58 65h91q0 -142 -149 -142q-154 0 -154 142h96q0 -65 58 -65z" />
    <glyph glyph-name="dotaccentcomb" unicode="&#x307;" horiz-adv-x="127" 
d="M0 767v126h127v-126h-127z" />
    <glyph glyph-name="dieresiscomb" unicode="&#x308;" horiz-adv-x="318" 
d="M0 768v119h123v-119h-123zM195 768v119h123v-119h-123z" />
    <glyph glyph-name="ringcomb" unicode="&#x30a;" horiz-adv-x="214" 
d="M214 840q0 -43 -31 -73.5t-77 -30.5q-42 0 -74 31t-32 73q0 43 32 73.5t74 30.5q46 0 77 -30t31 -74zM63 840q0 -20 11.5 -31.5t31.5 -11.5t33 12t13 31q0 46 -46 46q-43 0 -43 -46z" />
    <glyph glyph-name="hungarumlautcomb" unicode="&#x30b;" horiz-adv-x="374" 
d="M97 744h-97l64 151h127zM280 744h-97l64 151h127z" />
    <glyph glyph-name="caroncomb" unicode="&#x30c;" horiz-adv-x="352" 
d="M112 889l64 -74l64 74h112l-135 -151h-82l-135 151h112z" />
    <glyph glyph-name="commaaccentcomb" unicode="&#x326;" horiz-adv-x="171" 
d="M85 -204h-85l56 133h112z" />
    <glyph glyph-name="cedillacomb" unicode="&#x327;" horiz-adv-x="266" 
d="M8 -248l13 74h141q4 0 5 4l7 43q0 4 -3 4h-143l20 124h72l-11 -53h119q15 0 23.5 -9.5t5.5 -25.5l-20 -124q-2 -16 -13.5 -26.5t-27.5 -10.5h-188z" />
    <glyph glyph-name="ogonekcomb" unicode="&#x328;" horiz-adv-x="211" 
d="M211 -205h-174q-37 0 -37 33v45q0 21 15 45l77 122l88 -26v-14l-81 -117h112v-88z" />
    <glyph glyph-name="Wgrave" unicode="&#x1e80;" horiz-adv-x="657" 
d="M506 675h120l-102 -675h-115l-79 422l-81 -422h-115l-103 675h130l47 -432l68 432h112l68 -428zM283 744l-95 151h128l63 -151h-96z" />
    <glyph glyph-name="wgrave" unicode="&#x1e81;" horiz-adv-x="657" 
d="M506 675h120l-102 -675h-115l-79 422l-81 -422h-115l-103 675h130l47 -432l68 432h112l68 -428zM283 744l-95 151h128l63 -151h-96z" />
    <glyph glyph-name="Wacute" unicode="&#x1e82;" horiz-adv-x="657" 
d="M506 675h120l-102 -675h-115l-79 422l-81 -422h-115l-103 675h130l47 -432l68 432h112l68 -428zM377 744h-97l64 151h127z" />
    <glyph glyph-name="wacute" unicode="&#x1e83;" horiz-adv-x="657" 
d="M506 675h120l-102 -675h-115l-79 422l-81 -422h-115l-103 675h130l47 -432l68 432h112l68 -428zM377 744h-97l64 151h127z" />
    <glyph glyph-name="Wdieresis" unicode="&#x1e84;" horiz-adv-x="657" 
d="M506 675h120l-102 -675h-115l-79 422l-81 -422h-115l-103 675h130l47 -432l68 432h112l68 -428zM368 768v119h123v-119h-123zM173 768v119h123v-119h-123z" />
    <glyph glyph-name="wdieresis" unicode="&#x1e85;" horiz-adv-x="657" 
d="M506 675h120l-102 -675h-115l-79 422l-81 -422h-115l-103 675h130l47 -432l68 432h112l68 -428zM368 768v119h123v-119h-123zM173 768v119h123v-119h-123z" />
    <glyph glyph-name="Germandbls" unicode="&#x1e9e;" horiz-adv-x="561" 
d="M213 564v-564h-134v675h365q49 0 62.5 -31.5t-10.5 -78.5l-94 -190h19q48 0 69 -22.5t21 -72.5v-194q0 -40 -24.5 -63t-65.5 -23h-148v128h96q10 0 10 10v128q0 11 -10 11h-90v102l78 172q6 13 -6 13h-138z" />
    <glyph glyph-name="Etilde" unicode="&#x1ebc;" 
d="M79 0v675h319v-115h-184v-163h155v-113h-155v-169h184v-115h-319zM175 872q36 0 72 -23.5t49 -23.5q17 0 26.5 13t9.5 33h82q0 -63 -28.5 -96.5t-76.5 -33.5q-35 0 -72.5 23.5t-50.5 23.5q-35 0 -35 -46h-82q0 63 28.5 96.5t77.5 33.5z" />
    <glyph glyph-name="etilde" unicode="&#x1ebd;" 
d="M79 0v675h319v-115h-184v-163h155v-113h-155v-169h184v-115h-319zM175 872q36 0 72 -23.5t49 -23.5q17 0 26.5 13t9.5 33h82q0 -63 -28.5 -96.5t-76.5 -33.5q-35 0 -72.5 23.5t-50.5 23.5q-35 0 -35 -46h-82q0 63 28.5 96.5t77.5 33.5z" />
    <glyph glyph-name="Ygrave" unicode="&#x1ef2;" horiz-adv-x="492" 
d="M313 0h-134v204h-43q-35 0 -57.5 22.5t-22.5 57.5v391h135v-342q0 -10 9 -10h96q5 0 5 10v342h135v-391q0 -35 -23 -57.5t-58 -22.5h-42v-204zM200 744l-95 151h128l63 -151h-96z" />
    <glyph glyph-name="ygrave" unicode="&#x1ef3;" horiz-adv-x="492" 
d="M313 0h-134v204h-43q-35 0 -57.5 22.5t-22.5 57.5v391h135v-342q0 -10 9 -10h96q5 0 5 10v342h135v-391q0 -35 -23 -57.5t-58 -22.5h-42v-204zM200 744l-95 151h128l63 -151h-96z" />
    <glyph glyph-name="Ytilde" unicode="&#x1ef8;" horiz-adv-x="492" 
d="M313 0h-134v204h-43q-35 0 -57.5 22.5t-22.5 57.5v391h135v-342q0 -10 9 -10h96q5 0 5 10v342h135v-391q0 -35 -23 -57.5t-58 -22.5h-42v-204zM181 872q36 0 72 -23.5t49 -23.5q17 0 26.5 13t9.5 33h82q0 -63 -28.5 -96.5t-76.5 -33.5q-35 0 -72.5 23.5t-50.5 23.5
q-35 0 -35 -46h-82q0 63 28.5 96.5t77.5 33.5z" />
    <glyph glyph-name="ytilde" unicode="&#x1ef9;" horiz-adv-x="492" 
d="M313 0h-134v204h-43q-35 0 -57.5 22.5t-22.5 57.5v391h135v-342q0 -10 9 -10h96q5 0 5 10v342h135v-391q0 -35 -23 -57.5t-58 -22.5h-42v-204zM181 872q36 0 72 -23.5t49 -23.5q17 0 26.5 13t9.5 33h82q0 -63 -28.5 -96.5t-76.5 -33.5q-35 0 -72.5 23.5t-50.5 23.5
q-35 0 -35 -46h-82q0 63 28.5 96.5t77.5 33.5z" />
    <glyph glyph-name="thinspace" unicode="&#x2009;" horiz-adv-x="100" 
 />
    <glyph glyph-name="endash" unicode="&#x2013;" horiz-adv-x="421" 
d="M79 393h263v-127h-263v127z" />
    <glyph glyph-name="emdash" unicode="&#x2014;" horiz-adv-x="607" 
d="M79 393h449v-127h-449v127z" />
    <glyph glyph-name="quoteleft" unicode="&#x2018;" horiz-adv-x="340" 
d="M281 675l-78 -284h-145l103 284h120z" />
    <glyph glyph-name="quoteright" unicode="&#x2019;" horiz-adv-x="340" 
d="M59 391l78 284h145l-103 -284h-120z" />
    <glyph glyph-name="quotesinglbase" unicode="&#x201a;" horiz-adv-x="248" 
d="M173 -126h-98l-18 284h134z" />
    <glyph glyph-name="quotedblleft" unicode="&#x201c;" horiz-adv-x="583" 
d="M281 675l-78 -284h-145l103 284h120zM524 675l-78 -284h-145l103 284h120z" />
    <glyph glyph-name="quotedblright" unicode="&#x201d;" horiz-adv-x="583" 
d="M302 391l78 284h145l-103 -284h-120zM59 391l78 284h145l-103 -284h-120z" />
    <glyph glyph-name="quotedblbase" unicode="&#x201e;" horiz-adv-x="479" 
d="M387 -127h-98l-18 284h134zM173 -127h-98l-18 284h134z" />
    <glyph glyph-name="dagger" unicode="&#x2020;" horiz-adv-x="479" 
d="M31 378v114h143v183h131v-183h143v-114h-143v-378h-131v378h-143z" />
    <glyph glyph-name="daggerdbl" unicode="&#x2021;" horiz-adv-x="574" 
d="M79 416v110h142v149h132v-149h143v-110h-143v-136h143v-111h-143v-169h-132v169h-142v111h142v136h-142z" />
    <glyph glyph-name="bullet" unicode="&#x2022;" horiz-adv-x="332" 
d="M79 251v173h174v-173h-174z" />
    <glyph glyph-name="ellipsis" unicode="&#x2026;" horiz-adv-x="654" 
d="M199 166v-166h-141v166h141zM397 166v-166h-140v166h140zM596 166v-166h-141v166h141z" />
    <glyph glyph-name="perthousand" unicode="&#x2030;" horiz-adv-x="1257" 
d="M752 403q20 0 33.5 -13t13.5 -32v-312q0 -19 -13.5 -32.5t-33.5 -13.5h-214q-19 0 -33.5 13.5t-14.5 32.5v312q0 18 14.5 31.5t33.5 13.5h214zM694 87v230h-99v-230h99zM328 675q20 0 33.5 -13t13.5 -32v-312q0 -19 -13.5 -32.5t-33.5 -13.5h-214q-19 0 -33.5 13.5
t-14.5 32.5v312q0 18 14.5 31.5t33.5 13.5h214zM270 359v230h-99v-230h99zM260 148h123l-106 -187h-123zM699 704l-107 -188h-124l107 188h124zM1146 403q20 0 33.5 -13t13.5 -32v-312q0 -19 -13.5 -32.5t-33.5 -13.5h-214q-19 0 -33.5 13.5t-14.5 32.5v312q0 18 14.5 31.5
t33.5 13.5h214zM1088 87v230h-99v-230h99z" />
    <glyph glyph-name="second" unicode="&#x2033;" horiz-adv-x="583" 
d="M302 391l78 284h145l-103 -284h-120zM59 391l78 284h145l-103 -284h-120z" />
    <glyph glyph-name="guilsinglleft" unicode="&#x2039;" horiz-adv-x="456" 
d="M392 146l-326 148v85l326 147v-123l-189 -65l189 -65v-127z" />
    <glyph glyph-name="guilsinglright" unicode="&#x203a;" horiz-adv-x="436" 
d="M370 294l-305 -148v127l177 65l-177 65v123l305 -147v-85z" />
    <glyph glyph-name="fraction" unicode="&#x2044;" horiz-adv-x="105" 
d="M-114 148h123l-106 -187h-123zM325 704l-107 -188h-124l107 188h124z" />
    <glyph glyph-name="Euro" unicode="&#x20ac;" horiz-adv-x="503" 
d="M70 455h64v144q0 31 22.5 53.5t54.5 22.5h257v-107h-189q-11 0 -11 -11v-102h183l-30 -83h-153v-66h183l-30 -83h-153v-105q0 -10 11 -10h189v-108h-257q-32 0 -54.5 22t-22.5 55v146h-94l30 83h64v66h-94z" />
    <glyph glyph-name="numero" unicode="&#x2116;" horiz-adv-x="987" 
d="M352 0l-154 374v-374h-119v675h118l155 -390v390h119v-675h-119zM647 677h220q21 0 34 -14.5t13 -38.5v-373q0 -24 -13 -38.5t-34 -14.5h-220q-21 0 -34 15t-13 38v373q0 23 13 38t34 15zM600 102h314v-102h-314v102zM807 298v278q0 8 -7 8h-87q-5 0 -5 -8v-278
q0 -6 5 -6h87q7 0 7 6z" />
    <glyph glyph-name="servicemark" unicode="&#x2120;" horiz-adv-x="518" 
d="M349 418l-43 116v-196h-61v338h63l55 -160l52 160h66v-338h-64v196l-43 -116h-25zM33 338v59h88q4 0 4 5v71q0 4 -4 4h-52q-16 0 -26 10.5t-10 26.5v125q0 16 10 26.5t26 10.5h120v-58h-85q-4 0 -4 -5v-70q0 -5 4 -5h52q16 0 26.5 -10t10.5 -26v-127q0 -16 -10.5 -26.5
t-26.5 -10.5h-123z" />
    <glyph glyph-name="trademark" unicode="&#x2122;" horiz-adv-x="514" 
d="M345 418l-43 116v-196h-61v338h63l55 -160l52 160h66v-338h-64v196l-43 -116h-25zM27 676h178v-58h-55v-280h-68v280h-55v58z" />
    <glyph glyph-name="onethird" unicode="&#x2153;" horiz-adv-x="441" 
d="M303 157q0 -28 -28 -32q28 -8 28 -39v-58q0 -28 -27 -28h-138v52h102v48h-96v48h96v43h-102v51h138q27 0 27 -27v-58zM142 614l-8 44l63 22h59v-193h57v-49h-184v49h62v140zM31 368h378v-52h-378v52z" />
    <glyph glyph-name="twothirds" unicode="&#x2154;" horiz-adv-x="441" 
d="M194 540v-46h112v-56h-175v121q0 27 27 27h87v42h-109v52h145q28 0 28 -28v-85q0 -27 -28 -27h-87zM303 157q0 -28 -28 -32q28 -8 28 -39v-58q0 -28 -27 -28h-138v52h102v48h-96v48h96v43h-102v51h138q27 0 27 -27v-58zM31 368h378v-52h-378v52z" />
    <glyph glyph-name="oneeighth" unicode="&#x215b;" horiz-adv-x="441" 
d="M313 146q0 -19 -24 -21q9 -2 16.5 -9.5t7.5 -17.5v-70q0 -28 -27 -28h-130q-28 0 -28 28v70q0 10 7.5 17.5t17.5 9.5q-25 2 -25 21v68q0 28 28 28h130q27 0 27 -28v-68zM142 614l-8 44l63 22h59v-193h57v-49h-184v49h62v140zM31 368h378v-52h-378v52zM250 51v50h-59v-50
h59zM250 143v48h-59v-48h59z" />
    <glyph glyph-name="threeeighths" unicode="&#x215c;" horiz-adv-x="441" 
d="M313 146q0 -19 -24 -21q9 -2 16.5 -9.5t7.5 -17.5v-70q0 -28 -27 -28h-130q-28 0 -28 28v70q0 10 7.5 17.5t17.5 9.5q-25 2 -25 21v68q0 28 28 28h130q27 0 27 -28v-68zM303 594q0 -27 -28 -31q28 -8 28 -40v-58q0 -27 -27 -27h-138v51h102v48h-96v48h96v43h-102v52h138
q27 0 27 -28v-58zM31 368h378v-52h-378v52zM250 51v50h-59v-50h59zM250 143v48h-59v-48h59z" />
    <glyph glyph-name="fiveeighths" unicode="&#x215d;" horiz-adv-x="441" 
d="M313 146q0 -19 -24 -21q9 -2 16.5 -9.5t7.5 -17.5v-70q0 -28 -27 -28h-130q-28 0 -28 28v70q0 10 7.5 17.5t17.5 9.5q-25 2 -25 21v68q0 28 28 28h130q27 0 27 -28v-68zM301 628h-112v-43h91q27 0 27 -27v-92q0 -28 -27 -28h-147v52h111v47h-111v143h168v-52zM31 368h378
v-52h-378v52zM250 51v50h-59v-50h59zM250 143v48h-59v-48h59z" />
    <glyph glyph-name="seveneighths" unicode="&#x215e;" horiz-adv-x="441" 
d="M313 146q0 -19 -24 -21q9 -2 16.5 -9.5t7.5 -17.5v-70q0 -28 -27 -28h-130q-28 0 -28 28v70q0 10 7.5 17.5t17.5 9.5q-25 2 -25 21v68q0 28 28 28h130q27 0 27 -28v-68zM130 680h181v-52l-103 -190h-72l107 186h-113v56zM31 368h378v-52h-378v52zM250 51v50h-59v-50h59z
M250 143v48h-59v-48h59z" />
    <glyph glyph-name="minus" unicode="&#x2212;" horiz-adv-x="547" 
d="M468 271h-389v118h389v-118z" />
    <glyph glyph-name="approxequal" unicode="&#x2248;" horiz-adv-x="612" 
d="M414 482q-41 0 -105.5 -17t-111.5 -17q-69 0 -118 32v111q49 -32 118 -32q42 0 106.5 17t110.5 17q68 0 119 -32v-112q-50 33 -119 33zM533 54h-454v112h454v-112zM533 257h-454v112h454v-112z" />
    <glyph glyph-name="notequal" unicode="&#x2260;" horiz-adv-x="573" 
d="M494 156h-246l-72 -159l-67 32l58 127h-88v115h140l48 104h-188v115h240l69 149l65 -32l-53 -117h94v-115h-147l-47 -104h194v-115z" />
    <glyph glyph-name="lessequal" unicode="&#x2264;" horiz-adv-x="574" 
d="M496 203l-417 121v150l417 126v-122l-310 -80l310 -68v-127zM79 32v113h417v-113h-417z" />
    <glyph glyph-name="greaterequal" unicode="&#x2265;" horiz-adv-x="574" 
d="M495 324l-417 -121v127l310 68l-310 80v122l417 -126v-150zM495 145v-113h-417v113h417z" />
    <glyph glyph-name="Pcircle" unicode="&#x24c5;" horiz-adv-x="820" 
d="M169 675h482q35 0 57 -22t22 -57v-517q0 -35 -22 -57t-57 -22h-482q-35 0 -57 22t-22 57v517q0 35 22 57t57 22zM628 96v480q0 5 -4.5 9.5t-9.5 4.5h-410q-4 0 -8 -4.5t-4 -9.5v-480q0 -11 12 -11h410q14 0 14 11zM457 334v107q0 5 -5 5h-82v-117h82q5 0 5 5zM511 245
h-141v-97h-98v380h239q18 0 30.5 -12.5t12.5 -30.5v-197q0 -19 -12.5 -31t-30.5 -12z" />
    <glyph glyph-name="uni2B22" unicode="&#x2b22;" horiz-adv-x="428" 
d="M215 508l134 -77v-157l-134 -77l-136 77v157zM215 288q27 0 45 19t18 46q0 29 -18 48t-45 19q-29 0 -48 -19t-19 -48q0 -27 19 -46t48 -19z" />
    <glyph glyph-name="uniE000" unicode="&#xe000;" horiz-adv-x="1036" 
d="M556 585l343 -111q16 -5 26.5 -19.5t10.5 -30.5v-168q0 -16 -10.5 -30.5t-26.5 -19.5l-343 -108q-38 -12 -75 0l-342 108q-16 5 -27.5 19.5t-11.5 30.5v168q0 16 11.5 30.5t27.5 19.5l342 111q37 13 75 0zM390 283v121q0 15 -11.5 26t-26.5 11h-146v-195h146
q15 0 26.5 11.5t11.5 25.5zM617 283v121q0 15 -10.5 26t-26.5 11h-146v-195h146q15 0 26 11t11 26zM845 374v30q0 15 -11 26t-26 11h-109q-17 0 -28 -11t-11 -26v-121q0 -15 11 -26t28 -11h109q15 0 26 11.5t11 25.5v27h-57v-12l-6 -9h-58q-6 0 -6 9v92q0 6 6 6h58
q6 -2 6 -6v-16h57zM555 396q5 0 5 -6v-92q0 -9 -5 -9h-64v107h64zM324 396q9 0 9 -6v-92q0 -9 -9 -9h-60v107h60z" />
    <glyph glyph-name="uniF8FF" unicode="&#xf8ff;" horiz-adv-x="737" 
d="M598 577q59 0 93 -27.5t34 -71.5q0 -40 -30 -72t-86 -32q-35 0 -47 5q-8 -17 -24 -59t-28 -68q-8 -23 -23 -46q52 -18 92 -18q31 0 53.5 19t22.5 45q0 36 -40 46q11 -11 11 -23q0 -13 -10 -21.5t-24 -8.5t-24.5 8.5t-10.5 21.5q0 18 13.5 29t38.5 11q27 0 45 -17t18 -46
q0 -45 -34.5 -72t-98.5 -27q-24 0 -75 11q-69 -98 -162 -98q-39 0 -63.5 19.5t-24.5 50.5q0 26 19 44.5t45 18.5q40 0 40 -32q0 -31 -34 -31q-12 0 -20 7t-8 17q0 14 7 23q-31 -15 -31 -47q0 -25 18.5 -38.5t45.5 -13.5q65 0 110 99q-78 26 -203 87q-62 -64 -122 -64
q-31 0 -50.5 13.5t-19.5 38.5q0 31 27 50t78 19q28 0 58 -6q17 38 43 117q-107 7 -107 81q0 35 22 58t53 23q20 0 30.5 -10t10.5 -24t-8 -23t-20 -9q-30 0 -30 26q0 13 6 23q-46 -19 -46 -64q0 -55 92 -64q37 96 82.5 140.5t86.5 44.5q52 0 52 -52q0 -56 -42.5 -99
t-105.5 -51q-31 -89 -61 -128q31 -8 65 -20.5t75.5 -30.5t57.5 -24q3 10 12 28.5t11 23.5q29 69 57 104q-52 18 -99 18q-37 0 -56 -15.5t-19 -42.5q0 -21 13.5 -31t32.5 -10q31 0 42 29q-7 -5 -18 -5q-29 0 -29 25q0 29 31 29q15 0 24 -10t9 -27q0 -23 -17 -41t-42 -18
q-27 0 -45.5 17t-18.5 47q0 41 34 70t89 29q58 0 104 -17q36 43 76 58l11 -7q-21 -16 -46 -63q8 0 26 -3t26 -3q33 0 48.5 17.5t15.5 45.5q0 38 -29 57.5t-75 19.5q-64 0 -88 -29q30 0 30 -25q0 -28 -30 -28q-13 0 -21 8t-8 21q0 30 34.5 50t82.5 20zM394 623
q-21 0 -41 -36.5t-51 -126.5q49 9 82 45t33 83q0 35 -23 35zM75 223q41 0 81 64q-43 17 -70 17q-22 0 -36.5 -12.5t-14.5 -33.5q0 -35 40 -35z" />
    <glyph glyph-name="fi" unicode="&#xfb01;" horiz-adv-x="720" 
d="M79 0v675h316v-115h-182v-193h154v-114h-154v-253h-134zM641 675v-675h-131v675h131z" />
    <glyph glyph-name="fl" unicode="&#xfb02;" horiz-adv-x="837" 
d="M79 0v675h316v-115h-182v-193h154v-114h-154v-253h-134zM510 0v675h134v-558h161v-117h-295z" />
    <glyph glyph-name="ordinalunderscore" horiz-adv-x="527" 
d="M0 105h527v-105h-527v105z" />
    <glyph glyph-name="A_N_D" horiz-adv-x="1329" 
d="M944 675h227q34 0 59.5 -24t25.5 -59v-309q0 -35 -25.5 -59t-59.5 -24h-227v475zM386 623v-423h-108v127h-97v-127h-108v423q0 23 13 37.5t35 14.5h218q21 0 34 -14.5t13 -37.5zM723 200l-122 260v-260h-100v475h100l126 -265v265h100v-475h-104zM73 102h1183v-102h-1183
v102zM1149 318v240q0 11 -9 17.5t-24 6.5h-64v-288h64q15 0 24 6.5t9 17.5zM181 426h97v145q0 13 -15 13h-69q-13 0 -13 -13v-145z" />
    <glyph glyph-name="A_V_E" horiz-adv-x="1219" 
d="M386 623v-423h-108v127h-97v-127h-108v423q0 23 13 37.5t35 14.5h218q21 0 34 -14.5t13 -37.5zM73 102h1094v-102h-1094v102zM889 200v475h278v-93h-170v-98h148v-87h-148v-103h170v-94h-278zM706 675h107l-123 -475h-110l-121 475h116l60 -321zM181 426h97v145
q0 13 -15 13h-69q-13 0 -13 -13v-145z" />
    <glyph glyph-name="B_L_V_D" horiz-adv-x="1605" 
d="M79 102h1453v-102h-1453v102zM376 200h-264v475h260q25 0 40.5 -15t15.5 -39v-118q0 -56 -58 -66q61 -13 61 -64v-118q0 -25 -15 -40t-40 -15zM1220 675h227q34 0 59.5 -24t25.5 -59v-309q0 -35 -25.5 -59t-59.5 -24h-227v475zM1037 675h107l-124 -475h-110l-120 475h116
l59 -321zM535 200v475h108v-380h134v-95h-242zM1424 318v240q0 24 -32 24h-64v-288h64q32 0 32 24zM325 296v93q0 10 -6 10h-100v-111h100q6 0 6 8zM325 490v87q0 8 -6 8h-100v-104h100q6 0 6 9z" />
    <glyph glyph-name="C_I_R" horiz-adv-x="1086" 
d="M710 675h268q18 0 31 -16t13 -40v-209q0 -24 -13 -40t-31 -16h-7l52 -154h-105l-53 154h-47v-154h-108v475zM274 379h108v-125q0 -24 -13.5 -40t-32.5 -16h-218q-19 0 -32 16t-13 40v367q0 24 13 40t32 16h218q19 0 32.5 -16t13.5 -40v-124h-108v79q0 8 -5 8h-82
q-6 0 -6 -8v-277q0 -8 6 -8h82q5 0 5 12v76zM73 102h950v-102h-950v102zM592 675v-475h-108v475h108zM914 447v128q0 7 -5 7h-91v-141h91q5 0 5 6z" />
    <glyph glyph-name="C_O" horiz-adv-x="866" 
d="M274 379h108v-125q0 -24 -13.5 -40t-32.5 -16h-218q-19 0 -32 16t-13 40v367q0 24 13 40t32 16h218q19 0 32.5 -16t13.5 -40v-124h-108v79q0 8 -5 8h-82q-6 0 -6 -8v-277q0 -8 6 -8h82q5 0 5 12v76zM73 102h720v-102h-720v102zM525 678h221q21 0 34 -15t13 -38v-376
q0 -23 -13 -37.5t-34 -14.5h-221q-21 0 -34 14.5t-13 37.5v376q0 23 13 38t34 15zM685 297v280q0 8 -7 8h-86q-6 0 -6 -8v-280q0 -7 6 -7h86q7 0 7 7z" />
    <glyph glyph-name="C_O_O_P" horiz-adv-x="1949" 
d="M73 102h1821v-102h-1821v102zM527 678h221q21 0 34 -15t13 -38v-374q0 -23 -13 -37.5t-34 -14.5h-221q-20 0 -33.5 14.5t-13.5 37.5v374q0 23 13.5 38t33.5 15zM1208 678h220q21 0 34 -15t13 -38v-374q0 -23 -13 -37.5t-34 -14.5h-220q-21 0 -34.5 14.5t-13.5 37.5v374
q0 23 13.5 38t34.5 15zM1590 675h250q25 0 39.5 -15.5t14.5 -40.5v-236q0 -24 -15 -40t-39 -16h-142v-127h-108v475zM274 379h108v-125q0 -24 -13.5 -40t-32.5 -16h-218q-19 0 -32 16t-13 40v367q0 24 13 40.5t32 16.5h218q19 0 32.5 -16.5t13.5 -40.5v-124h-108v80
q0 8 -5 8h-82q-6 0 -6 -8v-278q0 -8 6 -8h82q5 0 5 13v75zM687 299v278q0 7 -6 7h-87q-6 0 -6 -7v-278q0 -7 6 -7h87q6 0 6 7zM1367 299v278q0 7 -6 7h-87q-6 0 -6 -7v-278q0 -7 6 -7h87q6 0 6 7zM873 491h209v-96h-209v96zM1698 419h82q6 0 6 6v150q0 7 -6 7h-82v-163z" />
    <glyph glyph-name="D_O_Z" horiz-adv-x="1221" 
d="M536 678h221q21 0 34 -15t13 -38v-376q0 -23 -13 -37.5t-34 -14.5h-221q-21 0 -34 14.5t-13 37.5v376q0 23 13 38t34 15zM79 675h227q34 0 59.5 -24t25.5 -59v-309q0 -35 -25.5 -59t-59.5 -24h-227v475zM79 102h1105v-102h-1105v102zM889 282l159 301h-153v92h282v-82
l-164 -301h171v-92h-295v82zM696 297v280q0 8 -7 8h-86q-6 0 -6 -8v-280q0 -7 6 -7h86q7 0 7 7zM283 318v240q0 24 -32 24h-64v-288h64q32 0 32 24z" />
    <glyph glyph-name="E_X_P" horiz-adv-x="1208" 
d="M849 675h247q27 0 42 -15.5t15 -40.5v-236q0 -24 -15 -40t-42 -16h-139v-127h-108v475zM79 102h1074v-102h-1074v102zM414 200l123 236l-119 239h121l64 -137l53 137h117l-117 -247l115 -228h-120l-63 130l-59 -130h-115zM79 200v475h278v-93h-171v-96h148v-92h-148v-100
h171v-94h-278zM957 419h83q5 0 5 6v150q0 7 -5 7h-83v-163z" />
    <glyph glyph-name="I_N_C" horiz-adv-x="1105" 
d="M527 200l-122 260v-260h-100v475h100l126 -265v265h100v-475h-104zM946 379h108v-125q0 -24 -13.5 -40t-32.5 -16h-218q-19 0 -32 16t-13 40v367q0 24 13 40t32 16h218q19 0 32.5 -16t13.5 -40v-124h-108v79q0 8 -5 8h-81q-7 0 -7 -8v-277q0 -8 7 -8h81q5 0 5 12v76z
M79 102h975v-102h-975v102zM187 675v-475h-108v475h108z" />
    <glyph glyph-name="K_P_H" horiz-adv-x="1295" 
d="M492 675h261q18 0 31 -16t13 -40v-236q0 -23 -13.5 -39.5t-30.5 -16.5h-153v-127h-108v475zM79 102h1137v-102h-1137v102zM1216 675v-475h-107v191h-104v-191h-109v475h109v-189h104v189h107zM299 200h119l-126 270l127 205h-122l-109 -190v190h-109v-475h109v141l29 51z
M600 419h83q6 0 6 6v150q0 7 -6 7h-83v-163z" />
    <glyph glyph-name="L_L_C" horiz-adv-x="1079" 
d="M79 200v475h108v-380h134v-95h-242zM921 377h107v-123q0 -24 -13.5 -40t-32.5 -16h-218q-18 0 -31.5 16t-13.5 40v367q0 24 13.5 40t31.5 16h218q19 0 32.5 -16t13.5 -40v-122h-107v77q0 8 -6 8h-81q-7 0 -7 -8v-277q0 -8 7 -8h81q6 0 6 12v74zM407 200v475h108v-380h134
v-95h-242zM79 102h949v-102h-949v102z" />
    <glyph glyph-name="L_T_D" horiz-adv-x="1102" 
d="M717 675h227q35 0 60 -24t25 -59v-309q0 -35 -25 -59t-60 -24h-227v475zM79 102h950v-102h-950v102zM337 675h301v-93h-97v-382h-108v382h-96v93zM79 200v475h108v-380h134v-95h-242zM922 318v240q0 11 -9 17.5t-23 6.5h-64v-288h64q14 0 23 6.5t9 17.5z" />
    <glyph glyph-name="M_D" horiz-adv-x="968" 
d="M583 675h227q35 0 60 -24t25 -59v-309q0 -35 -25 -59t-60 -24h-227v475zM247 305l-68 163v-268h-100v475h110l85 -231l76 231h116v-475h-102v273l-67 -168h-50zM79 102h816v-102h-816v102zM788 318v240q0 11 -9 17.5t-23 6.5h-64v-288h64q14 0 23 6.5t9 17.5z" />
    <glyph glyph-name="M_F_G" horiz-adv-x="1327" 
d="M247 305l-68 163v-268h-100v475h110l85 -231l76 231h116v-475h-102v273l-67 -168h-50zM79 102h1170v-102h-1170v102zM1092 403v88h192v-88h-35v-149q0 -24 -13 -40t-31 -16h-219q-18 0 -31.5 16t-13.5 40v367q0 24 13.5 40t31.5 16h265v-96h-197q-6 0 -6 -7v-279
q0 -7 6 -7h90q6 0 6 7v108h-58zM583 200v475h269v-93h-161v-121h139v-94h-139v-167h-108z" />
    <glyph glyph-name="M_P_H" horiz-adv-x="1387" 
d="M247 305l-68 163v-268h-100v475h110l85 -231l76 231h116v-475h-102v273l-67 -168h-50zM79 102h1229v-102h-1229v102zM583 675h261q18 0 31 -16t13 -40v-236q0 -23 -13.5 -39.5t-30.5 -16.5h-153v-127h-108v475zM1307 675l1 -475h-108v191h-104v-191h-109v475h109v-189
h104v189h107zM691 419h83q6 0 6 6v150q0 7 -6 7h-83v-163z" />
    <glyph glyph-name="M_R" horiz-adv-x="960" 
d="M247 305l-68 163v-268h-100v475h110l85 -231l76 231h116v-475h-102v273l-67 -168h-50zM583 675h268q18 0 31 -16t13 -40v-209q0 -24 -13 -40t-31 -16h-6l52 -154h-106l-52 154h-47v-154h-109v475zM79 102h818v-102h-818v102zM788 447v128q0 7 -6 7h-90v-141h90q6 0 6 6z
" />
    <glyph glyph-name="M_R_S" horiz-adv-x="1328" 
d="M247 305l-68 163v-268h-100v475h110l85 -231l76 231h116v-475h-102v273l-67 -168h-50zM583 675h268q18 0 31 -16t13 -40v-209q0 -24 -13 -40t-31 -16h-6l52 -154h-106l-52 154h-47v-154h-109v475zM79 102h1195v-102h-1195v102zM1000 200v95h160q7 0 7 6v78q0 6 -7 6h-113
q-21 0 -34 14.5t-13 38.5v185q0 23 13 37.5t34 14.5h221v-97h-154q-6 0 -6 -7v-77q0 -6 6 -6h113q21 0 34 -14.5t13 -38.5v-183q0 -23 -13 -37.5t-34 -14.5h-227zM788 447v128q0 7 -6 7h-90v-141h90q6 0 6 6z" />
    <glyph glyph-name="M_S" horiz-adv-x="904" 
d="M247 305l-68 163v-268h-100v475h110l85 -231l76 231h116v-475h-102v273l-67 -168h-50zM576 200v95h160q7 0 7 6v78q0 6 -7 6h-113q-21 0 -34 14.5t-13 38.5v185q0 23 13 37.5t34 14.5h221v-97h-154q-6 0 -6 -7v-77q0 -6 6 -6h113q21 0 34 -14.5t13 -38.5v-183
q0 -23 -13 -37.5t-34 -14.5h-227zM79 102h771v-102h-771v102z" />
    <glyph glyph-name="M_X" horiz-adv-x="923" 
d="M247 305l-68 163v-268h-100v475h110l85 -231l76 231h116v-475h-102v273l-67 -168h-50zM537 200l123 236l-119 239h121l64 -137l53 137h117l-117 -247l115 -228h-120l-63 131l-59 -131h-115zM79 102h815v-102h-815v102z" />
    <glyph glyph-name="O_Z" horiz-adv-x="809" 
d="M120 677h221q21 0 34 -15t13 -38v-373q0 -23 -13 -38t-34 -15h-221q-21 0 -34 15t-13 38v373q0 23 13 38t34 15zM477 282l159 301h-154v92h282v-82l-163 -301h170v-92h-294v82zM73 102h698v-102h-698v102zM280 298v278q0 8 -7 8h-87q-5 0 -5 -8v-278q0 -6 5 -6h87
q7 0 7 6z" />
    <glyph glyph-name="R_D" horiz-adv-x="888" 
d="M503 675h227q34 0 59.5 -24t25.5 -59v-309q0 -35 -25.5 -59t-59.5 -24h-227v475zM79 675h268q18 0 31 -16t13 -40v-209q0 -24 -13 -40t-31 -16h-7l52 -154h-105l-53 154h-47v-154h-108v475zM79 102h736v-102h-736v102zM708 318v240q0 11 -9 17.5t-23 6.5h-65v-288h65
q14 0 23 6.5t9 17.5zM283 447v128q0 7 -5 7h-91v-141h91q5 0 5 6z" />
    <glyph glyph-name="R_P_M" horiz-adv-x="1373" 
d="M1075 305l-68 163v-268h-100v475h110l85 -231l76 231h116v-475h-102v273l-67 -168h-50zM79 675h258q25 0 39.5 -15.5t14.5 -40.5v-209q0 -24 -14 -39.5t-37 -16.5l52 -154h-105l-53 154h-47v-154h-108v475zM79 102h1215v-102h-1215v102zM503 675h251q24 0 38.5 -15.5
t14.5 -40.5v-236q0 -24 -14.5 -40t-38.5 -16h-143v-127h-108v475zM611 419h83q5 0 5 6v150q0 7 -5 7h-83v-163zM283 447v128q0 7 -5 7h-91v-141h91q5 0 5 6z" />
    <glyph glyph-name="S_T" horiz-adv-x="726" 
d="M57 200v95h161q7 0 7 6v78q0 6 -7 6h-113q-21 0 -34.5 14.5t-13.5 38.5v185q0 23 13.5 37.5t34.5 14.5h221v-97h-154q-6 0 -6 -7v-77q0 -6 6 -6h113q21 0 34 -14.5t13 -38.5v-183q0 -23 -13 -37.5t-34 -14.5h-228zM403 675h301v-93h-97v-382h-107v382h-97v93zM57 102h618
v-102h-618v102z" />
    <glyph glyph-name="S_T_E" horiz-adv-x="1113" 
d="M57 102h1004v-102h-1004v102zM57 200v95h161q7 0 7 6v78q0 6 -7 6h-113q-21 0 -34.5 14.5t-13.5 38.5v185q0 23 13.5 37.5t34.5 14.5h221v-97h-154q-6 0 -6 -7v-77q0 -6 6 -6h113q21 0 34 -14.5t13 -38.5v-183q0 -23 -13 -37.5t-34 -14.5h-228zM784 200v475h277v-93h-170
v-98h148v-87h-148v-103h170v-94h-277zM403 675h301v-93h-97v-382h-107v382h-97v93z" />
    <glyph glyph-name="T_H_E" horiz-adv-x="1170" 
d="M723 675v-475h-108v191h-103v-191h-109v475h109v-189h103v189h108zM48 102h1070v-102h-1070v102zM840 200v475h278v-93h-170v-98h148v-88h-148v-102h170v-94h-278zM22 675h301v-93h-97v-382h-107v382h-97v93z" />
    <glyph glyph-name="e_s_t_D" horiz-adv-x="1723" 
d="M507 0v118h176q9 0 9 9v142q0 9 -9 9h-104q-31 0 -51.5 20.5t-20.5 52.5v251q0 32 20 52.5t52 20.5h240v-115h-169q-9 0 -9 -11v-140q0 -9 9 -9h104q32 0 52.5 -20.5t20.5 -52.5v-254q0 -32 -20.5 -52.5t-52.5 -20.5h-247zM79 0v675h319v-115h-184v-163h155v-113h-155
v-169h184v-115h-319zM1338 675h227q34 0 59.5 -24t25.5 -59v-309q0 -35 -25.5 -59t-59.5 -24h-227v475zM903 675h354v-115h-110v-560h-134v560h-110v115zM1323 102h327v-102h-327v102zM1543 318v240q0 11 -9 17.5t-23 6.5h-64v-288h64q14 0 23 6.5t9 17.5z" />
    <glyph glyph-name="n_O" horiz-adv-x="987" 
d="M352 0l-154 374v-374h-119v675h118l155 -390v390h119v-675h-119zM647 677h220q21 0 34 -14.5t13 -38.5v-373q0 -24 -13 -38.5t-34 -14.5h-220q-21 0 -34 15t-13 38v373q0 23 13 38t34 15zM600 102h314v-102h-314v102zM807 298v278q0 8 -7 8h-87q-5 0 -5 -8v-278
q0 -6 5 -6h87q7 0 7 6z" />
    <glyph glyph-name="one_sixteenths" horiz-adv-x="561" 
d="M479 189h-116v-39h94q28 0 28 -28v-95q0 -28 -28 -28h-129q-28 0 -28 28v186q0 28 28 28h151v-52zM88 175l-8 44l63 22h59v-193h57v-49h-184v49h62v140zM201 614l-8 44l63 22h59v-193h57v-49h-184v49h62v140zM31 368h498v-52h-498v52zM363 106v-57h60v57h-60z" />
    <glyph glyph-name="three_sixteenths" horiz-adv-x="561" 
d="M479 189h-116v-39h94q28 0 28 -28v-95q0 -28 -28 -28h-129q-28 0 -28 28v186q0 28 28 28h151v-52zM362 589q0 -27 -28 -31q28 -8 28 -40v-58q0 -27 -27 -27h-138v51h102v48h-96v48h96v43h-102v52h138q27 0 27 -28v-58zM88 175l-8 44l63 22h59v-193h57v-49h-184v49h62v140
zM363 106v-57h60v57h-60zM31 368h498v-52h-498v52z" />
    <glyph glyph-name="five_sixteenths" horiz-adv-x="561" 
d="M479 189h-116v-39h94q28 0 28 -28v-95q0 -28 -28 -28h-129q-28 0 -28 28v186q0 28 28 28h151v-52zM361 623h-112v-43h91q27 0 27 -27v-92q0 -28 -27 -28h-147v52h111v47h-111v143h168v-52zM88 175l-8 44l63 22h59v-193h57v-49h-184v49h62v140zM363 106v-57h60v57h-60z
M31 368h498v-52h-498v52z" />
    <glyph glyph-name="seven_sixteenths" horiz-adv-x="561" 
d="M479 189h-116v-39h94q28 0 28 -28v-95q0 -28 -28 -28h-129q-28 0 -28 28v186q0 28 28 28h151v-52zM88 175l-8 44l63 22h59v-193h57v-49h-184v49h62v140zM189 675h181v-52l-103 -190h-72l107 186h-113v56zM363 106v-57h60v57h-60zM31 368h498v-52h-498v52z" />
    <glyph glyph-name="nine_sixteenths" horiz-adv-x="561" 
d="M193 485h117v39h-95q-27 0 -27 28v95q0 28 27 28h130q28 0 28 -28v-186q0 -28 -28 -28h-152v52zM479 189h-116v-39h94q28 0 28 -28v-95q0 -28 -28 -28h-129q-28 0 -28 28v186q0 28 28 28h151v-52zM88 175l-8 44l63 22h59v-193h57v-49h-184v49h62v140zM363 106v-57h60v57
h-60zM310 568v57h-60v-57h60zM31 368h498v-52h-498v52z" />
    <glyph glyph-name="eleven_sixteenths" horiz-adv-x="649" 
d="M523 189h-116v-39h94q28 0 28 -28v-95q0 -28 -28 -28h-129q-28 0 -28 28v186q0 28 28 28h151v-52zM132 614l-8 44l63 22h59v-193h57v-49h-184v49h62v140zM358 614l-8 44l63 22h59v-193h57v-49h-184v49h62v140zM132 175l-8 44l63 22h59v-193h57v-49h-184v49h62v140z
M407 106v-57h60v57h-60zM31 368h586v-52h-586v52z" />
    <glyph glyph-name="thirteen_sixteenths" horiz-adv-x="649" 
d="M523 189h-116v-39h94q28 0 28 -28v-95q0 -28 -28 -28h-129q-28 0 -28 28v186q0 28 28 28h151v-52zM529 594q0 -27 -28 -31q28 -8 28 -40v-58q0 -27 -27 -27h-138v51h102v48h-96v48h96v43h-102v52h138q27 0 27 -28v-58zM132 614l-8 44l63 22h59v-193h57v-49h-184v49h62
v140zM132 175l-8 44l63 22h59v-193h57v-49h-184v49h62v140zM407 106v-57h60v57h-60zM31 368h586v-52h-586v52z" />
    <glyph glyph-name="fifteen_sixteenths" horiz-adv-x="649" 
d="M523 189h-116v-39h94q28 0 28 -28v-95q0 -28 -28 -28h-129q-28 0 -28 28v186q0 28 28 28h151v-52zM132 175l-8 44l63 22h59v-193h57v-49h-184v49h62v140zM132 614l-8 44l63 22h59v-193h57v-49h-184v49h62v140zM407 106v-57h60v57h-60zM31 368h586v-52h-586v52zM520 628
h-112v-43h91q27 0 27 -27v-92q0 -28 -27 -28h-147v52h111v47h-111v143h168v-52z" />
    <glyph glyph-name="zero.dnom" horiz-adv-x="419" 
d="M317 403q20 0 33.5 -13t13.5 -32v-312q0 -19 -13.5 -32.5t-33.5 -13.5h-214q-19 0 -33.5 13.5t-14.5 32.5v312q0 18 14.5 31.5t33.5 13.5h214zM259 87v230h-99v-230h99z" />
    <glyph glyph-name="one.dnom" horiz-adv-x="348" 
d="M47 293l-13 74l105 36h98v-321h94v-82h-306v82h104v232z" />
    <glyph glyph-name="two.dnom" horiz-adv-x="372" 
d="M143 169v-76h187v-93h-292v201q0 46 46 46h145v70h-182v86h242q46 0 46 -46v-142q0 -46 -46 -46h-146z" />
    <glyph glyph-name="three.dnom" horiz-adv-x="351" 
d="M314 261q0 -43 -47 -52q23 -7 35 -25.5t12 -40.5v-97q0 -46 -46 -46h-230v86h170v80h-159v80h159v72h-170v86h230q46 0 46 -46v-97z" />
    <glyph glyph-name="four.dnom" horiz-adv-x="382" 
d="M370 185v-93h-46v-92h-102v92h-184v311h103v-225h81v225h102v-218h46z" />
    <glyph glyph-name="five.dnom" horiz-adv-x="366" 
d="M318 317h-186v-72h151q46 0 46 -46v-153q0 -46 -46 -46h-245v86h186v78h-186v239h280v-86z" />
    <glyph glyph-name="six.dnom" horiz-adv-x="400" 
d="M354 317h-194v-66h157q46 0 46 -46v-159q0 -46 -46 -46h-216q-46 0 -46 46v311q0 46 46 46h253v-86zM160 179v-95h100v95h-100z" />
    <glyph glyph-name="seven.dnom" horiz-adv-x="320" 
d="M29 403h301v-87l-172 -316h-120l179 310h-188v93z" />
    <glyph glyph-name="eight.dnom" horiz-adv-x="419" 
d="M364 244q0 -16 -12.5 -25t-29.5 -10q16 -2 29 -16t13 -30v-117q0 -46 -46 -46h-217q-46 0 -46 46v117q0 17 13 31t29 15q-17 1 -29.5 10t-12.5 25v113q0 46 46 46h217q46 0 46 -46v-113zM259 85v84h-99v-84h99zM259 238v81h-99v-81h99z" />
    <glyph glyph-name="nine.dnom" horiz-adv-x="401" 
d="M47 86h194v66h-157q-46 0 -46 46v159q0 46 46 46h216q46 0 46 -46v-311q0 -46 -46 -46h-253v86zM241 224v95h-100v-95h100z" />
    <glyph glyph-name="horiz_fraction" horiz-adv-x="360" 
d="M-9 367l378 2v-52l-378 -2v52z" />
    <glyph glyph-name="zero.numr" horiz-adv-x="419" 
d="M317 675q20 0 33.5 -13t13.5 -32v-312q0 -19 -13.5 -32.5t-33.5 -13.5h-214q-19 0 -33.5 13.5t-14.5 32.5v312q0 18 14.5 31.5t33.5 13.5h214zM259 359v230h-99v-230h99z" />
    <glyph glyph-name="one.numr" horiz-adv-x="348" 
d="M47 565l-13 74l105 36h98v-321h94v-82h-306v82h104v232z" />
    <glyph glyph-name="two.numr" horiz-adv-x="372" 
d="M143 441v-76h187v-93h-292v201q0 46 46 46h145v70h-182v86h242q46 0 46 -46v-142q0 -46 -46 -46h-146z" />
    <glyph glyph-name="three.numr" horiz-adv-x="351" 
d="M314 532q0 -43 -47 -52q23 -7 35 -25.5t12 -40.5v-97q0 -46 -46 -46h-230v86h170v80h-159v80h159v72h-170v86h230q46 0 46 -46v-97z" />
    <glyph glyph-name="four.numr" horiz-adv-x="382" 
d="M370 457v-93h-46v-92h-102v92h-184v311h103v-225h81v225h102v-218h46z" />
    <glyph glyph-name="five.numr" horiz-adv-x="366" 
d="M318 589h-186v-72h151q46 0 46 -46v-153q0 -46 -46 -46h-245v86h186v78h-186v239h280v-86z" />
    <glyph glyph-name="six.numr" horiz-adv-x="400" 
d="M354 589h-194v-66h157q46 0 46 -46v-159q0 -46 -46 -46h-216q-46 0 -46 46v311q0 46 46 46h253v-86zM160 451v-95h100v95h-100z" />
    <glyph glyph-name="seven.numr" horiz-adv-x="320" 
d="M29 675h301v-87l-172 -316h-120l179 310h-188v93z" />
    <glyph glyph-name="eight.numr" horiz-adv-x="419" 
d="M364 516q0 -16 -12.5 -25t-29.5 -10q16 -2 29 -16t13 -30v-117q0 -46 -46 -46h-217q-46 0 -46 46v117q0 17 13 31t29 15q-17 1 -29.5 10t-12.5 25v113q0 46 46 46h217q46 0 46 -46v-113zM259 357v84h-99v-84h99zM259 510v81h-99v-81h99z" />
    <glyph glyph-name="nine.numr" horiz-adv-x="401" 
d="M47 358h194v66h-157q-46 0 -46 46v159q0 46 46 46h216q46 0 46 -46v-311q0 -46 -46 -46h-253v86zM241 496v95h-100v-95h100z" />
    <glyph glyph-name="zero.zero" horiz-adv-x="504" 
d="M103 -81l25 79q-30 2 -49 23t-19 53v528q0 34 21.5 55.5t55.5 21.5h182l23 75h54l-25 -75q33 -1 53 -22.5t20 -54.5v-528q0 -34 -21 -55.5t-56 -21.5h-185l-25 -78h-54zM331 562q0 5 -3 8l-101 -469h92q12 0 12 12v449zM173 113q0 -5 1 -6l101 467h-89q-13 0 -13 -12
v-449z" />
    <glyph glyph-name="I.alt" horiz-adv-x="422" 
d="M44 563v112h334v-112h-101v-453h101v-112h-334v112h101v453h-101z" />
    <glyph glyph-name="i.alt" horiz-adv-x="422" 
d="M44 563v112h334v-112h-101v-451h101v-112h-334v112h101v451h-101z" />
    <glyph glyph-name="one.alt" 
d="M61 525l-20 98l153 52h113v-675h-134v551z" />
    <glyph glyph-name="ampersand.alt" horiz-adv-x="512" 
d="M409 675v-112h-189q-15 0 -15 -15v-127q0 -15 15 -15h162v-102h-162q-15 0 -15 -15v-162q0 -15 15 -15h109v91h128v-305h-128v102h-177q-35 0 -57 22t-22 57v174q0 40 23 68t62 31q-39 3 -62 29.5t-23 66.5v148q0 35 22 57t57 22h257z" />
    <glyph glyph-name="bullet.alt" horiz-adv-x="394" 
d="M197 241q-44 0 -76 31.5t-32 76.5q0 44 32 76t76 32t76 -32t32 -76q0 -45 -32 -76.5t-76 -31.5z" />
    <glyph glyph-name="registered.alt" horiz-adv-x="484" 
d="M97 675h290q21 0 34 -13t13 -34v-311q0 -21 -13 -34t-34 -13h-290q-21 0 -34 13t-13 34v311q0 21 13 34t34 13zM373 328v288q0 8 -9 8h-246q-7 0 -7 -8v-288q0 -7 7 -7h246q9 0 9 7zM270 480v55q0 3 -3 3h-49v-61h49q3 0 3 3zM272 359l-29 72h-25v-72h-59v228h144
q10 0 17.5 -7.5t7.5 -18.5v-104q0 -11 -7 -18.5t-18 -7.5h-2l29 -72h-58z" />
    <glyph glyph-name="C_ordinal" 
d="M274 379h108v-125q0 -24 -13.5 -40t-32.5 -16h-218q-19 0 -32 16t-13 40v367q0 24 13 40t32 16h218q19 0 32.5 -16t13.5 -40v-124h-108v79q0 8 -5 8h-82q-6 0 -6 -8v-277q0 -8 6 -8h82q5 0 5 12v76zM73 102h309v-102h-309v102z" />
    <glyph glyph-name="hexagon" horiz-adv-x="428" 
d="M215 508l134 -77v-157l-134 -77l-136 77v157z" />
    <glyph glyph-name="at.alt" horiz-adv-x="0" 
 />
    </font>
</defs>
</svg>
